<svg xmlns="http://www.w3.org/2000/svg" width="449.823" height="285.17" viewBox="0 0 449.823 285.17"><defs><style>.a{fill:#5c9ad1;}.b{fill:#fff;}.c{fill:#211715;}.d{fill:#5394cf;}.e{fill:#ffda71;}.f{fill:#b5886a;}.g{fill:#7a7473;}</style></defs><path class="a" d="M28.185,251.5c-14.875-1.03-20.48-7.841-23.978-19.8a57.607,57.607,0,0,1-2.188-16.9c.209-16.59,1.454-34.946,13.613-46.116,6.867-6.309,16-9.682,25.086-11.777,16.994-3.917,25.33-4.782,45.58-8.678a21.823,21.823,0,0,0,10.665-5.276c27.111-24.889,43.575-32.225,73.374-34.742,29.817-2.518,52.444,6.222,92,9.333,26.637,2.095,44.444,3.112,73.333,3.112,5.926.148,19.747,2.123,25.037,4.592,4.444,2.074,12.408,6.111,17.589,12.519,5.917,7.318,10.8,14.222,14.556,22.852,2.537,5.835,4.3,13.509,5.6,19.738.8,3.854,1.4,7.116,1.883,9.871,2.35,13.558,1.222,26.282-2.7,36.873-2.963,8-5.5,12.252-9.63,15.259a43.607,43.607,0,0,1-15.7,7.111"/><path class="b" d="M113.406,150.6a2.35,2.35,0,0,0,1.746,3.884c11.619.137,29.926-.108,49.019-.523,19.473-.424,62.163-2.039,77.013-2.59,25.024-1.41,88.95-4.9,111.672-9.267a1.157,1.157,0,0,0,.687-1.844c-5.787-7.651-16.215-15.275-26.257-20.688-24.793-.16-40.323-2.085-64.667-4-35.361-2.781-55.8-8.509-81.333-8.222-14.945,4.823-30.782,12.035-42.1,19.593C127.662,134.635,121.028,141.681,113.406,150.6Z"/><path class="b" d="M4.668,188.359c1.915-7.536,5.223-14.413,10.964-19.687a44.07,44.07,0,0,1,13.481-8.217c4.013.612,8.786,1.395,12.884,2.278a12.912,12.912,0,0,1,3.159.837c.977.492,2.307,1.537,1.7,3.371a73.473,73.473,0,0,1-7.955,17.1,11.129,11.129,0,0,1-6.611,5.092c-9.889,2.634-20.624,2.255-28.343,2.433Q4.267,189.944,4.668,188.359Z"/><path class="c" d="M44.923,166.409a67.345,67.345,0,0,1-5.067,11.945c-1.87,3.458-3.687,7.484-7.74,8.743-8.467,2.63-17.761,2.313-26.523,2.436-2.572.036-2.579,4.036,0,4,7.451-.1,14.907-.129,22.275-1.4,3.626-.626,7.2-1.375,10.054-3.837,2.756-2.375,4.441-6.067,6.087-9.243a71.766,71.766,0,0,0,4.772-11.58c.77-2.462-3.09-3.516-3.858-1.063Z"/><path class="c" d="M26.982,172.316c-.253,1.273-.411,2.563-.64,3.84-.129.712-.27,1.423-.452,2.123-.081.309-.169.617-.274.919-.044.129-.1.255-.143.382.256-.694.078-.192-.015-.019a2,2,0,0,0,3.454,2.019,14.373,14.373,0,0,0,1.268-4.256c.239-1.311.4-2.637.659-3.944a2,2,0,1,0-3.857-1.064Z"/><path class="c" d="M107.551,254.088q16.923-.013,33.845-.1,19.707-.081,39.415-.179,20.677-.1,41.356-.167,19.836-.061,39.671-.059,17.106.013,34.213.144,1.89.018,3.78.038c2.575.028,2.577-3.972,0-4q-16.731-.179-33.463-.177-19.61-.029-39.218.039-20.673.059-41.346.159-19.922.09-39.844.183-17.286.075-34.571.112l-3.838,0c-2.574,0-2.578,4,0,4Z"/><path class="c" d="M369.809,132.7a47.991,47.991,0,0,1,9.546,9.582,103.77,103.77,0,0,1,7.644,11.2,65.766,65.766,0,0,1,5.786,12.627,130.526,130.526,0,0,1,3.448,13.41c2,9.4,3.722,18.826,3.213,28.485a62.252,62.252,0,0,1-6.784,25.587,21.022,21.022,0,0,1-7.169,8.068,41.745,41.745,0,0,1-13.728,5.87c-2.509.571-1.447,4.428,1.063,3.858a45.311,45.311,0,0,0,12.967-5.2,26.145,26.145,0,0,0,8.595-7.686,50.158,50.158,0,0,0,5.441-11.633,65.688,65.688,0,0,0,3.2-14.072c1.233-10.192-.1-20.2-2.091-30.2-1.914-9.64-4.145-19.179-8.729-27.946a96.575,96.575,0,0,0-8.92-13.751,66.3,66.3,0,0,0-4.992-6.127,51.7,51.7,0,0,0-6.473-5.52,2.013,2.013,0,0,0-2.736.717,2.047,2.047,0,0,0,.718,2.737Z"/><path class="c" d="M28.185,249.5c-5.3-.387-10.9-1.619-14.937-5.3-3.811-3.475-5.785-8.4-7.178-13.261-2.245-7.823-2.208-15.849-1.844-23.907a84.406,84.406,0,0,1,2.99-20.38,36.117,36.117,0,0,1,9.985-16.7c5.707-5.183,13.038-8.2,20.391-10.2,12.8-3.487,26.034-5.352,39.068-7.7,3.98-.717,8.1-1.241,12-2.323a24.758,24.758,0,0,0,10.087-5.7,187.943,187.943,0,0,1,19.472-15.655q2.388-1.653,4.834-3.22c2.159-1.387.155-4.851-2.019-3.454a181.363,181.363,0,0,0-20.035,15c-3.217,2.76-6.154,6.012-10,7.9-3.72,1.825-8.056,2.248-12.088,2.99-13.662,2.514-27.48,4.492-40.955,7.93-7.758,1.979-15.346,4.993-21.67,9.993a38.307,38.307,0,0,0-12,17.29C1.825,189.562.861,196.815.393,203.968c-.53,8.1-.768,16.349.906,24.337,1.248,5.956,3.365,12.123,7.327,16.844,3.618,4.31,8.871,6.718,14.328,7.706a49.729,49.729,0,0,0,5.231.641c2.569.188,2.557-3.813,0-4Z"/><path class="c" d="M225.849,159.742c-1.1,7.7-2.085,15.386-2.419,23.165-.393,9.155-.587,18.315-.648,27.478q-.051,7.685-.041,15.37c0,2.574,4,2.578,4,0,0-9.111,0-18.224.191-27.334.164-7.928.3-15.909,1.036-23.809.431-4.619,1.084-9.215,1.739-13.806a2.069,2.069,0,0,0-1.4-2.461,2.016,2.016,0,0,0-2.461,1.4Z"/><path class="c" d="M116.812,165.087a82.693,82.693,0,0,0-4.2,22.524,213.185,213.185,0,0,0,.675,24.334c.361,4.5.853,8.988,1.517,13.453a2.014,2.014,0,0,0,2.46,1.4,2.052,2.052,0,0,0,1.4-2.46,208.4,208.4,0,0,1-2.006-23.392c-.255-7.336-.45-14.845.847-22.1a96.427,96.427,0,0,1,3.169-12.695c.8-2.454-3.066-3.506-3.857-1.063Z"/><path class="c" d="M124.621,238.149c7.99.042,15.981.024,23.971.015q18.691-.019,37.383-.069,20.652-.048,41.3-.109,17.382-.049,34.763-.1,9.348-.029,18.695-.053h.672c2.573,0,2.578-4,0-4-5.348,0-10.695.028-16.042.044q-16.663.05-33.329.1-20.535.06-41.07.111-19.176.047-38.353.077c-8.719.011-17.439.027-26.158,0l-1.835-.008c-2.574-.014-2.577,3.986,0,4Z"/><path class="c" d="M323.923,157.4a139.847,139.847,0,0,1,4.921,14.969c1.623,5.549,3.188,11.128,4.491,16.762.216.933.428,1.868.6,2.81.033.184.059.37.093.553.045.245.065-.48-.014-.09-.017.079.066.253.02.323a.764.764,0,0,0,0,.094c-.162-.3.528-1.243.539-1.256l1.415-.585c-8.635.261-17.038.726-25.038,4.333a30.008,30.008,0,0,0-15.078,14.324c-1.124,2.3,2.324,4.335,3.454,2.019a25.87,25.87,0,0,1,6.149-8.289,30.3,30.3,0,0,1,7.973-4.813,41.551,41.551,0,0,1,12.358-3.079c1.928-.194,3.864-.3,5.8-.366.935-.033,1.871-.058,2.806-.084,1-.028,2.217.136,2.989-.631.985-.979.579-2.51.358-3.7-.312-1.674-.72-3.331-1.129-4.983-1.242-5.018-2.629-10-4.088-14.962a136.607,136.607,0,0,0-4.756-14.409,2.068,2.068,0,0,0-2.461-1.4,2.013,2.013,0,0,0-1.4,2.46Z"/><path class="c" d="M191.573,171.372c.251,2.673,2.2,4.057,4.751,4.057h4.893c3.661,0,7.324.035,10.984,0a4.527,4.527,0,0,0,2.852-.881c2-1.553,1.58-4.045,1.535-6.282-.051-2.57-4.051-2.579-4,0q.025,1.227.051,2.453c0,.233.123.568-.087.707-.108.072-.491,0-.611,0H197.578a8.457,8.457,0,0,1-2-.057,2.054,2.054,0,0,0-2-2,2.014,2.014,0,0,0-2,2Z"/><path class="c" d="M317.688,171.271c-.039-1.918.267-4.142-1.1-5.69a4.3,4.3,0,0,0-3.2-1.389c-1.291-.039-2.589,0-3.88,0H297.666c-2.094,0-4.16.545-4.922,2.8a7.6,7.6,0,0,0-.183,2.69,9.727,9.727,0,0,0,.3,3.027,4.19,4.19,0,0,0,3.877,2.72c3.211.129,6.453,0,9.666,0h6.14c.339,0,.682.016,1.021,0a4.215,4.215,0,0,0,4.12-4.158c.123-2.573-3.877-2.567-4,0-.019.384-5.649.158-6.148.158h-9.9a2.694,2.694,0,0,1-.887,0c-.392-.206-.184-1.3-.2-1.747-.013-.434-.289-1.292.135-1.49a3.093,3.093,0,0,1,.97,0h14.922c.188,0,.736-.1.906,0,.052.031.081.022.132.074.139.146.022,1.091.026,1.309l.036,1.7C313.74,173.841,317.74,173.85,317.688,171.271Z"/><path class="c" d="M139.74,158.951a20.114,20.114,0,0,0-2.374,2.457,17.954,17.954,0,0,0-1.272,1.71,4.509,4.509,0,0,0-.864,2.265,2.381,2.381,0,0,0,1.163,2.071,4.126,4.126,0,0,0,1.681.437c.655.082,1.312.138,1.971.173.734.038,1.469.051,2.2.049a10.557,10.557,0,0,0,1.355-.049,2.447,2.447,0,0,0,1.875-1.222,4.567,4.567,0,0,0,.384-1.465q.1-.606.23-1.207.26-1.224.629-2.422a2.02,2.02,0,0,0-1.4-2.46,2.042,2.042,0,0,0-2.46,1.4,28.965,28.965,0,0,0-.847,3.56,5.879,5.879,0,0,0-.139.86c0,.266-.572.649.5-.427-.188.189.583-.753.809-.576-.082-.064-.481.008-.584.008-.617.006-1.234,0-1.85-.017-.57-.018-1.14-.049-1.709-.1q-.4-.035-.791-.081c-.082-.01-.36-.048-.035,0,.361.051.054.021.025,0s-.308-.112.056.048q.544.178.52.922.232,1.349.413.742c.013-.041-.216.46-.118.287.021-.037.037-.079.056-.117.047-.1.1-.19.15-.283.113-.2.237-.4.366-.589s.266-.38.405-.566c.208-.28-.265.327-.04.055.095-.116.189-.234.285-.349a20.137,20.137,0,0,1,2.231-2.284,2.011,2.011,0,0,0,0-2.828,2.05,2.05,0,0,0-2.829,0Z"/><path class="c" d="M144.793,161.217a28.85,28.85,0,0,0-.972,4.333.8.8,0,0,1-.127.383.547.547,0,0,1-.355.167,34.334,34.334,0,0,1-5.625-.258.571.571,0,0,1-.462-.287.619.619,0,0,1,.054-.462,16.387,16.387,0,0,1,3.848-4.728Z"/><path class="d" d="M135.75,144.531a8.346,8.346,0,0,1,1.454-5.068,10.179,10.179,0,0,1,6.07-3.329l2.868-.1a4.672,4.672,0,0,1,3.9,2.906c.628,2.359.3,7.726.36,8.771a74.369,74.369,0,0,1-.27,10.511c-.165,1.437-1.148,2.96-3.652,2.44s-6.141-.991-7.286-2.371a13.489,13.489,0,0,1-2.268-5.628A59.007,59.007,0,0,1,135.75,144.531Z"/><path class="a" d="M135.75,144.531a8.346,8.346,0,0,1,1.454-5.068,10.179,10.179,0,0,1,6.07-3.329l2.868-.1a4.672,4.672,0,0,1,3.9,2.906c.628,2.359.3,7.726.36,8.771a74.369,74.369,0,0,1-.27,10.511c-.165,1.437-1.148,2.96-3.652,2.44s-6.141-.991-7.286-2.371a13.489,13.489,0,0,1-2.268-5.628A59.007,59.007,0,0,1,135.75,144.531Z"/><path class="c" d="M137.75,144.531c.04-1.942.532-3.766,2.168-4.91a7.682,7.682,0,0,1,4.209-1.517c1.383-.047,2.571-.319,3.6.82s.7,3.488.707,4.895c.011,3.588.123,7.2-.032,10.785a29.579,29.579,0,0,1-.236,3.327c-.1.631-.224.839-.909.833a16.447,16.447,0,0,1-2.994-.568,12.622,12.622,0,0,1-3.054-.878c-1.774-.888-2.185-4.266-2.529-6.057a38,38,0,0,1-.935-6.73c-.021-2.573-4.021-2.579-4,0a44.09,44.09,0,0,0,1.078,7.793c.526,2.739,1.3,6.277,3.7,8.021,2.13,1.55,5.3,1.922,7.831,2.315a4.741,4.741,0,0,0,5.709-3.905c.8-4.822.378-9.9.376-14.776,0-2.5.14-5.476-1.544-7.507a6.9,6.9,0,0,0-5.95-2.4,12.622,12.622,0,0,0-7.047,2.091c-2.876,1.95-4.079,4.95-4.149,8.364C133.7,147.106,137.7,147.1,137.75,144.531Z"/><path class="c" d="M48.781,167.472a4.51,4.51,0,0,0-1.448-4.84c-1.521-1.253-3.37-1.525-5.24-1.921-3.878-.82-7.793-1.465-11.709-2.069a2.064,2.064,0,0,0-2.461,1.4,2.016,2.016,0,0,0,1.4,2.461c3.318.511,6.631,1.057,9.925,1.706a29.847,29.847,0,0,1,4.694,1.013,3.633,3.633,0,0,1,.586.291c.031.018.319.222.181.113s.138.136.162.163c.05.055.083.055.113.143.084.251.036-.169.023.123-.012.269.06-.132-.081.358-.712,2.478,3.146,3.537,3.858,1.063Z"/><path class="c" d="M72.535,212.488c-20.829,0-35.226,16.133-35.226,35.01,0,21.852,13.626,35.666,35.227,35.666,22.1,0,35.227-13.814,35.227-35.666C107.763,228.492,93.291,212.488,72.535,212.488Z"/><path class="c" d="M334.868,212.488c-20.828,0-35.225,16.133-35.225,35.01,0,21.852,13.625,35.666,35.227,35.666,22.1,0,35.227-13.814,35.227-35.666C370.1,228.492,355.624,212.488,334.868,212.488Z"/><path class="c" d="M72.535,210.488a37.855,37.855,0,0,0-23.168,7.743,36.544,36.544,0,0,0-12.626,18.862c-4.073,14.412.106,31.85,12.366,41.035,5.943,4.453,13.329,6.542,20.672,6.959,7.734.438,15.78-.815,22.64-4.541,13.307-7.23,18.874-23.2,17.051-37.7a37.284,37.284,0,0,0-9.8-21.05,36.337,36.337,0,0,0-20.544-10.762,43.379,43.379,0,0,0-6.6-.544c-2.574-.011-2.577,3.989,0,4a33.869,33.869,0,0,1,20.714,6.846,32.564,32.564,0,0,1,11.263,16.931c3.468,12.455.282,28.22-10.314,36.381-5.291,4.075-11.935,6.011-18.533,6.422-6.962.434-14.2-.506-20.427-3.793C43,270.818,38.032,256.6,39.543,243.36a32.358,32.358,0,0,1,27.269-28.439,36.31,36.31,0,0,1,5.723-.433C75.108,214.477,75.114,210.477,72.535,210.488Z"/><path class="b" d="M72.536,235.4a12.149,12.149,0,0,0-12.39,12.314c0,7.686,4.793,12.544,12.39,12.544,7.775,0,12.39-4.858,12.39-12.544A12.138,12.138,0,0,0,72.536,235.4Z"/><path class="c" d="M334.868,210.488a37.85,37.85,0,0,0-23.167,7.743,36.551,36.551,0,0,0-12.627,18.862c-4.073,14.412.106,31.85,12.366,41.035,5.944,4.453,13.33,6.542,20.673,6.959,7.733.438,15.779-.815,22.639-4.541,13.308-7.23,18.875-23.2,17.051-37.7a37.277,37.277,0,0,0-9.8-21.05,36.338,36.338,0,0,0-20.543-10.762,43.392,43.392,0,0,0-6.6-.544c-2.574-.011-2.577,3.989,0,4a33.867,33.867,0,0,1,20.714,6.846,32.56,32.56,0,0,1,11.264,16.931c3.467,12.455.281,28.22-10.314,36.381-5.292,4.075-11.936,6.011-18.534,6.422-6.961.434-14.2-.506-20.427-3.793-12.239-6.457-17.206-20.675-15.7-33.915a32.357,32.357,0,0,1,27.27-28.439,36.288,36.288,0,0,1,5.722-.433C337.442,214.477,337.447,210.477,334.868,210.488Z"/><path class="b" d="M334.869,235.4a12.148,12.148,0,0,0-12.389,12.314c0,7.686,4.792,12.544,12.39,12.544,7.774,0,12.39-4.858,12.39-12.544A12.139,12.139,0,0,0,334.869,235.4Z"/><path class="c" d="M410.728,234.28c7.5-.007,14.993-.349,22.49-.159,2.575.065,2.574-3.935,0-4-7.5-.19-14.993.152-22.49.159-2.574,0-2.578,4,0,4Z"/><path class="c" d="M409.892,248.718c12.667-.007,25.336-.121,38-.408,2.57-.058,2.579-4.058,0-4-12.664.287-25.333.4-38,.408-2.573,0-2.578,4,0,4Z"/><path class="c" d="M136.854,152.428q-6.965.081-13.932.091-2.915,0-5.83-.022c-.605-.005-2.6.4-2.145-.643a10.239,10.239,0,0,1,1.674-1.936q1.013-1.164,2.038-2.316,1.885-2.112,3.843-4.158a106.51,106.51,0,0,1,8.548-7.989,110.392,110.392,0,0,1,12.084-8.69c2.176-1.364.17-4.826-2.019-3.454a113.118,113.118,0,0,0-21.96,17.847c-1.481,1.557-2.923,3.151-4.342,4.764-1.327,1.508-3.343,3.184-3.855,5.184a4.39,4.39,0,0,0,2.317,4.928c1.787.867,4.313.47,6.248.479,5.777.024,11.555-.017,17.331-.085,2.572-.03,2.579-4.03,0-4Z"/><path class="b" d="M305.569,95.108c.9-1.042,1.751-2.049,2.538-3a14.485,14.485,0,0,1-2.844-.8,2.36,2.36,0,0,1-1.167-1.048,2.882,2.882,0,0,1-.194-.828c-.174-1.313-.614-7.15-.788-8.463l-14.666-1-.152-.01-.428,2.881a7.048,7.048,0,0,1-1.2,3.432,6.122,6.122,0,0,1-1.648,1.3,27.932,27.932,0,0,1-4.06,1.607.409.409,0,0,1,.031.058c.534,1.027,1.547,3.109,2.751,5.58,2.084,4.275,4.739,9.712,6.471,12.851a1.993,1.993,0,0,0,3.113.488C297.28,104.415,301.824,99.454,305.569,95.108Z"/><path class="b" d="M358.508,113.044c-.714-5.37-1.624-11.925-2-15.623,0,0-.037-.362-.081-.876,2.931-4.231,3.3-9.63,2.449-13.772-.66-3.226-1.11-6.819-3.719-8.829-1.438-1.107-4.24-1.272-5.557-.023-1.025-1.307-3.425-1.908-4.685-1.87-1.222.037-2.165,1.015-3.037,1.926-1.128-1.168-4.712-1.129-6.148-.371s-2.254,3.521-1.926,5.112l0,.6a6.188,6.188,0,0,0-1.263.692c-1.635,1.145-2.34,3.21-2.678,5.177a14.022,14.022,0,0,0,1.41,9.677c2.5,4.081,7.447,5.826,12.008,7.281a61.406,61.406,0,0,1-.213,13.612l-.116,1.041c5.566,1.272,10.9,2.432,16.466,3.427l-.2-1.654C359.039,117.072,358.789,115.149,358.508,113.044Z"/><path class="e" d="M262.969,137.8c.006,1.513.368,9.461.368,10.957l52.851-2.926c.243-4.221.744-10.124,1.279-15.805l.277.249c7.906,8.36,15.41,14.137,26.222,18.074a13.258,13.258,0,0,0,6.371.445,11.636,11.636,0,0,0,4.888-3.408c5.39-7.175,7.493-15.469,8.026-23.33a1.3,1.3,0,0,0-1.094-1.358c-6.786-1.129-13.122-2.5-19.82-4.04a1.448,1.448,0,0,0-1.708,1c-.126.427-.251.822-.374,1.2l-4.891-5.029c-4.388-4.24-7.369-11.124-11.687-15.445-4.107-2.969-10.61-5.444-15.276-6.629a186.865,186.865,0,0,1-16.889,18.074c-2.074-2.815-9.928-19.687-10.842-21.166-5.454.5-11.729,1.145-17.329,3.243-1.953.731-3.829,1.652-5.7,2.572l-7.527,3.7,12.94,18.131C262.877,123.07,262.942,130.5,262.969,137.8Z"/><path class="c" d="M345.067,115.755a73.345,73.345,0,0,0,.213-13.612,2.081,2.081,0,0,0-1.468-1.928c-3.03-.971-6.279-1.984-8.766-4.054-2.821-2.348-3.695-5.758-3.4-9.316a8.875,8.875,0,0,1,1.34-4.516c1-1.322,2.516-1.461,4.046-1.375.484.027.828-.058,1.121.227a2.086,2.086,0,0,1,.623,1.579c-.176,1.225-1.883,1.6-2.872,1.639-2.566.095-2.579,4.1,0,4,3.73-.138,7.561-2.744,6.755-6.908a5.607,5.607,0,0,0-3.577-4.258,10.092,10.092,0,0,0-5.4.011c-4.281,1.3-5.7,5.56-6.036,9.6a14.335,14.335,0,0,0,3.776,11.415c3.045,3.067,7.3,4.524,11.324,5.812l-1.469-1.929a73.432,73.432,0,0,1-.213,13.612,2.014,2.014,0,0,0,2,2,2.047,2.047,0,0,0,2-2Z"/><path class="c" d="M335.737,78.186c-.162-.994.423-2.63,1.19-2.91.887-.323,2.968-.4,3.541.115a2.034,2.034,0,0,0,2.828,0c.693-.72,1.229-1.446,2.286-1.305a4.137,4.137,0,0,1,2.608,1.249,2.039,2.039,0,0,0,2.829,0,2.648,2.648,0,0,1,2.244-.132,3.629,3.629,0,0,1,1.9,1.751c1.147,1.969,1.445,4.455,1.855,6.664.81,4.371-.045,9.318-2.97,12.763-1.658,1.951,1.159,4.794,2.828,2.829,4.379-5.157,4.985-11.641,3.722-18.055-.594-3.014-1.331-6.267-3.736-8.395a6.757,6.757,0,0,0-8.667-.253h2.829a8.022,8.022,0,0,0-5.074-2.38c-2.3-.292-3.941.839-5.477,2.436H343.3c-1.98-1.793-5.488-1.9-7.894-.98-2.935,1.126-3.986,4.81-3.522,7.666a2.015,2.015,0,0,0,2.46,1.4,2.048,2.048,0,0,0,1.4-2.46Z"/><path class="c" d="M354.512,97.421c.72,7.071,1.867,14.092,2.7,21.148a2.061,2.061,0,0,0,2,2,2.012,2.012,0,0,0,2-2c-.837-7.056-1.984-14.077-2.7-21.148a2.058,2.058,0,0,0-2-2,2.014,2.014,0,0,0-2,2Z"/><path class="c" d="M316.33,131.687a77.862,77.862,0,0,0,15.864,13.265,62.824,62.824,0,0,0,9.511,4.667c2.916,1.153,6.585,2.07,9.663.942,3.3-1.208,5.531-3.836,7.339-6.722a41.56,41.56,0,0,0,4.643-10.519,53.451,53.451,0,0,0,1.858-10.675,3.46,3.46,0,0,0-3-3.959c-2.138-.4-4.283-.754-6.417-1.172q-3.514-.69-7.014-1.46-1.764-.386-3.527-.785a14.158,14.158,0,0,0-3.382-.633c-2.432.073-3.038,2.215-3.681,4.117-.619,1.831-1.278,3.637-1.776,5.507-.663,2.49,3.194,3.552,3.857,1.063.365-1.369.8-2.713,1.267-4.049.231-.655.464-1.31.679-1.97.028-.083.374-1.1.347-1.113l-.539.429q.366.109.741.183c3.578.855,7.186,1.612,10.793,2.335q2.589.52,5.189.988c.247.044,2.858.572,2.883.5l-.187-.285q-.283-.619-.215.109a7.707,7.707,0,0,0-.139,1.579,46.4,46.4,0,0,1-1.829,9.022,37.2,37.2,0,0,1-4,8.771c-1.264,2.018-2.972,4.425-5.448,5.043-2.569.641-5.265-.376-7.6-1.327a56.579,56.579,0,0,1-7.831-3.941,73.591,73.591,0,0,1-15.215-12.736c-1.775-1.872-4.6.96-2.828,2.828Z"/><path class="c" d="M280.67,86.663a78.045,78.045,0,0,0-15.732,2.593c-5.522,1.688-10.671,4.655-15.835,7.192-2.31,1.134-.285,4.585,2.019,3.453,4.853-2.383,9.691-5.2,14.879-6.788a72.641,72.641,0,0,1,14.669-2.45,2.055,2.055,0,0,0,2-2,2.014,2.014,0,0,0-2-2Z"/><path class="c" d="M285.94,82.316c-.069.42-.14.84-.236,1.255-.048.207-.1.412-.165.615-.029.091-.063.18-.091.272-.121.39.212-.419.028-.056-.086.169-.168.338-.27.5-.031.049-.062.1-.1.142q-.132.186.14-.176c-.07.035-.14.161-.195.217s-.137.138-.209.2q-.065.058-.132.114c-.116.1-.058.053.176-.13a6.3,6.3,0,0,0-.533.366,8.712,8.712,0,0,1-.991.551,1.909,1.909,0,0,1-.3.134c.135-.034.418-.172.115-.051-.2.078-.393.152-.591.224-.763.278-1.539.52-2.3.813a2.167,2.167,0,0,0-1.195.919,2.043,2.043,0,0,0-.2,1.541,2.023,2.023,0,0,0,2.46,1.4,25.468,25.468,0,0,0,5.216-2.2,6.4,6.4,0,0,0,2.356-2.541,11.481,11.481,0,0,0,.867-3.042,2.173,2.173,0,0,0-.2-1.541,2,2,0,0,0-3.655.478Z"/><path class="c" d="M302,90.931a4.157,4.157,0,0,0,1.461,1.426,9.282,9.282,0,0,0,1.056.607,15.372,15.372,0,0,0,3.187,1.108,2.089,2.089,0,0,0,1.542-.2,2,2,0,0,0-.478-3.655,15.419,15.419,0,0,1-2.226-.682l.478.2a8.529,8.529,0,0,1-1.785-1.008l.4.313a2.279,2.279,0,0,1-.414-.4l.312.405a1.128,1.128,0,0,1-.084-.138,2,2,0,0,0-3.655.478,2.221,2.221,0,0,0,.2,1.541Z"/><path class="c" d="M347.435,74.408a44.89,44.89,0,0,0-.946,5.666,12.739,12.739,0,0,0,.214,5.319,4.527,4.527,0,0,0,4.706,3.152,4.677,4.677,0,0,0,2.752-1.065,4.892,4.892,0,0,0,1.506-2.707,2,2,0,1,0-3.857-1.063c-.038.184-.1.357-.139.539.084-.353-.029.029-.084.138-.167.329.133-.129,0,.024a1.77,1.77,0,0,1-.148.152c.22-.154.269-.191.149-.11-.355.207.058-.052.112-.016-.01-.007-.364.105-.382.11-.377.115.391.016-.056.01-.128,0-.256.009-.385,0-.408-.017-.07.072,0,.007-.081.072-.484-.185-.055.011-.373-.17.278.237-.091-.069-.292-.241.1.266-.089-.089-.026-.049-.244-.439-.119-.184s-.045-.155-.061-.215c-.05-.185-.075-.468-.045-.119-.014-.168-.028-.336-.037-.5a23.376,23.376,0,0,1,.2-4.1,1.05,1.05,0,0,1,.032-.238c.029-.191.057-.381.088-.572q.075-.468.161-.935c.128-.7.275-1.394.435-2.087a2,2,0,0,0-3.857-1.063Z"/><path class="c" d="M339.991,73.667a29.219,29.219,0,0,0-1.086,6.412c-.131,2.111-.35,4.517.614,6.46a5.051,5.051,0,0,0,4.792,2.983,5.371,5.371,0,0,0,4.8-3.613,2.013,2.013,0,0,0-1.4-2.46,2.049,2.049,0,0,0-2.46,1.4c.115-.329-.025.026-.074.106q-.114.171.024-.022l-.133.142s-.387.327-.245.226c.163-.117-.247.137-.283.16-.319.213.056-.093-.057.03s-.333.039,0,.024c-.141.007-.281.009-.423.008-.2,0-.35-.059-.073.005a2.767,2.767,0,0,0-.414-.106c-.236-.012.333.17-.037-.02-.313-.161.12.2,0-.017-.02-.034-.293-.365-.127-.137a4.663,4.663,0,0,1-.28-.444c-.024-.042-.213-.435-.112-.187a3.066,3.066,0,0,1-.144-.485c-.071-.318,0,.516,0-.193a30.794,30.794,0,0,1,.984-9.205,2,2,0,0,0-3.857-1.064Z"/><path class="c" d="M307.869,93.683a52.437,52.437,0,0,1,10.892,4.075,14.506,14.506,0,0,1,4.184,2.756c.925,1.01,1.784,2.081,2.616,3.168,3.985,5.2,7.4,11.1,12.1,15.709,1.841,1.8,4.671-1.023,2.828-2.828a57.087,57.087,0,0,1-5.929-7.311c-2.137-2.933-4.22-5.907-6.456-8.766a29.718,29.718,0,0,0-2.848-3.347,20.2,20.2,0,0,0-4.837-3.017,57.8,57.8,0,0,0-11.489-4.3c-2.494-.644-3.558,3.213-1.063,3.857Z"/><path class="c" d="M306.987,90.34q-3.565,4.3-7.332,8.43-1.965,2.156-3.992,4.253-1.014,1.046-2.048,2.072c-.285.282-.572.564-.86.843q-.212.206-.425.409c-.117.113-.6.359-.335.349-.134,0-.082-.02.012.057a2.1,2.1,0,0,1-.353-.606q-.437-.807-.86-1.623c-.658-1.262-1.3-2.534-1.936-3.808-1.3-2.613-2.582-5.24-3.862-7.865-.842-1.728-1.606-3.548-2.6-5.2-1.327-2.2-4.787-.194-3.454,2.019.945,1.569,1.673,3.3,2.474,4.941,1.416,2.9,2.827,5.81,4.275,8.7.665,1.326,1.336,2.648,2.029,3.958.764,1.447,1.523,2.879,3.252,3.309,2.172.539,3.608-.826,5.039-2.229,1.554-1.522,3.067-3.087,4.554-4.674q4.785-5.108,9.249-10.505c1.631-1.968-1.184-4.813-2.828-2.829Z"/><path class="c" d="M261.26,132.1c-.052,2.071-.018,4.144-.018,6.215a2,2,0,0,0,4,0c0-2.071-.034-4.144.018-6.215a2.018,2.018,0,0,0-2-2,2.038,2.038,0,0,0-2,2Z"/><path class="c" d="M316.651,118.085c-.972,9.229-1.922,18.478-2.463,27.744-.15,2.571,3.851,2.563,4,0,.541-9.266,1.491-18.515,2.463-27.744a2.013,2.013,0,0,0-2-2,2.045,2.045,0,0,0-2,2Z"/><path class="b" d="M325.83,40.132a35.208,35.208,0,0,1-1.1,9.245,1.216,1.216,0,0,1,.226.029,3.629,3.629,0,0,1,2.508,1.877,5.124,5.124,0,0,1,.42,2.09,15.36,15.36,0,0,1-2.019,8.046,9.756,9.756,0,0,1-2.706,3.168,5.773,5.773,0,0,1-3.327.843l-.462-.005a29.969,29.969,0,0,1-6.055,9.778A21.71,21.71,0,0,1,300.546,82.3a33.208,33.208,0,0,1-6.275.284,37.376,37.376,0,0,1-5.716-.937,21.976,21.976,0,0,1-12.39-8.517,29.942,29.942,0,0,1-4.941-10.444,3.978,3.978,0,0,1-3.779-1.209,9.756,9.756,0,0,1-2.336-3.451A15.363,15.363,0,0,1,264,49.8a5.125,5.125,0,0,1,.651-2.029,3.627,3.627,0,0,1,2.7-1.586,3.715,3.715,0,0,1,.395-.015l-.1-.845a39.736,39.736,0,0,1-.019-8.448c1.139-11.664,12.483-24.112,32.344-22.6C321.448,15.9,325.89,35.929,325.83,40.132Z"/><path class="f" d="M265.132,31.8A28.178,28.178,0,0,1,274.9,15.579,35.209,35.209,0,0,1,297.99,8.01c6.03.337,9.01.745,13.466,3.48l3.9,2.392,1.519.95a16.313,16.313,0,0,1,3.945,3.455c4.676,5.045,7.632,13.818,7.75,21.533a35.535,35.535,0,0,1-1.7,10.627,3.727,3.727,0,0,0-1.905-1.041,3.84,3.84,0,0,0-3.119.727s-.324.287-.8.722c-.3-1.12-.724-2.754-1.044-3.533a9.772,9.772,0,0,0-1.08-2.006,5.337,5.337,0,0,0-.66-.8c-.414-.384-1.288-1.19-1.736-1.539a20.3,20.3,0,0,1-5.209-5.927c-1.478-2.462-2.8-5.466-2.421-8.406A22.308,22.308,0,0,1,291,39.755c-1.915.17-3.62-1.612-5.407-1.778-5.037,2.963-11.859,7.416-13.579,10.942l-1.648-1.664a3.841,3.841,0,0,0-3.018-1.069,3.781,3.781,0,0,0-2.12.905A40.986,40.986,0,0,1,265.132,31.8Z"/><path class="f" d="M258.429,62.584a9.031,9.031,0,0,1,.881-3.819,5.21,5.21,0,0,1,4.268-2.987l.906-.052a15.529,15.529,0,0,0,.783,2.3,9.772,9.772,0,0,0,2.337,3.451,5.78,5.78,0,0,0,3.212,1.208l.461.049a30.254,30.254,0,0,0,3.761,8.7c-1.03,2.362-2.054,4.508-2.054,4.508a15.231,15.231,0,0,1-4.965,5.371c-1.893,1.243-4.246,2.065-6.425,1.448a1.586,1.586,0,0,1-1.1-.689c-.263-.58.72-1.565,1.3-2.547.691-1.165.425-3.128.051-4.43a28.592,28.592,0,0,0-1.6-3.729,20.969,20.969,0,0,1-1.791-7.272C258.424,63.6,258.412,63.09,258.429,62.584Z"/><path class="c" d="M263.975,53.7a7.988,7.988,0,0,0-6.994,5.5c-1.371,4.047-.277,8.978,1.361,12.777.753,1.748,1.819,3.436,1.879,5.392.055,1.757-1.768,2.723-1.768,4.5,0,2.387,2.891,3.14,4.8,3.106a11.145,11.145,0,0,0,5.871-1.993c3.208-2.146,6.339-5.271,7.6-8.983.831-2.442-3.031-3.49-3.857-1.063-.787,2.311-2.8,4.2-4.621,5.732-1.511,1.262-4.593,3.326-6.551,1.943l.718.717-.031.01V82.4c.142-.953,1.221-1.814,1.544-2.775a7.863,7.863,0,0,0,.142-3.71c-.428-2.769-2.108-5.111-2.885-7.777-.924-3.171-1.92-10,2.792-10.444a2.054,2.054,0,0,0,2-2,2.014,2.014,0,0,0-2-2Z"/><path class="c" d="M322.851,51.859a1.847,1.847,0,0,1,2.785.237,4.339,4.339,0,0,1,.255,2.113,12.6,12.6,0,0,1-.351,2.643,12.808,12.808,0,0,1-2.171,4.76,3.955,3.955,0,0,1-3.533,1.818c-2.573.02-2.579,4.02,0,4a8.37,8.37,0,0,0,3.934-.869,9.238,9.238,0,0,0,2.817-2.617,16.355,16.355,0,0,0,3.033-7.123c.429-2.592.651-5.734-1.322-7.774a5.816,5.816,0,0,0-7.466-.641,2.062,2.062,0,0,0-.718,2.736,2.015,2.015,0,0,0,2.737.717Z"/><path class="c" d="M271.783,45.841a5.863,5.863,0,0,0-7.717-.361c-2.2,1.784-2.387,5.127-2.161,7.749.429,5,3.428,12.361,9.6,11.441a2.014,2.014,0,0,0,1.4-2.46,2.051,2.051,0,0,0-2.46-1.4,1.966,1.966,0,0,1-1.285-.5,6.677,6.677,0,0,1-1.423-1.578,12.592,12.592,0,0,1-1.78-5.029,13.861,13.861,0,0,1-.077-2.717,4.929,4.929,0,0,1,.432-2.092,1.743,1.743,0,0,1,2.646-.228c1.878,1.757,4.713-1.065,2.828-2.829Z"/><path class="c" d="M323.154,51a27.3,27.3,0,0,0-1.913-5.722c-1.026-1.922-2.659-3.111-4.264-4.5-3.3-2.865-6.551-7.572-6.085-12.131.213-2.079-2.765-2.575-3.727-1.01-3.56,5.794-8.993,10.079-15.94,10.676-2.545.219-2.568,4.221,0,4a23.126,23.126,0,0,0,11.8-4.232,29.274,29.274,0,0,0,7.593-8.425l-3.727-1.009c-.506,4.942,2.542,10.134,5.836,13.6,1.355,1.429,3.173,2.471,4.408,4,1.3,1.614,1.625,3.87,2.161,5.812.684,2.478,4.544,1.426,3.857-1.063Z"/><path class="c" d="M290.889,31.338a5.35,5.35,0,0,1-.66.825,14.624,14.624,0,0,1-1.068,1.045,22.407,22.407,0,0,1-2.417,1.854c-2.009,1.376-4.117,2.6-6.193,3.875-3.77,2.312-8.3,4.934-10.312,9.067a2.053,2.053,0,0,0,.718,2.737,2.018,2.018,0,0,0,2.736-.718,12.273,12.273,0,0,1,3.725-4.2,61.952,61.952,0,0,1,6.081-4c3.843-2.336,8.261-4.65,10.844-8.468,1.446-2.138-2.018-4.142-3.454-2.019Z"/><path class="c" d="M312.466,9.763a23.065,23.065,0,0,0-6.931-2.912,45.524,45.524,0,0,0-7.994-.863A36.87,36.87,0,0,0,280.319,9.8a31.149,31.149,0,0,0-16.366,18.549c-1.857,5.934-1.742,12.23-.809,18.315a2.013,2.013,0,0,0,2.46,1.4,2.049,2.049,0,0,0,1.4-2.46c-1.31-8.55-.348-17.68,5.315-24.561a31.516,31.516,0,0,1,23-11.062c5.293-.181,10.55.461,15.13,3.235,2.207,1.337,4.22-2.121,2.019-3.454Z"/><path class="c" d="M329.1,50.139a36.144,36.144,0,0,0-.142-20.7c-1.857-6.3-5.369-12.749-11.069-16.335-2.186-1.375-4.195,2.085-2.019,3.454,4.8,3.02,7.805,8.9,9.343,14.333a32.112,32.112,0,0,1,.03,18.184c-.76,2.465,3.1,3.52,3.857,1.063Z"/><path class="c" d="M268.743,60.578c1.621,9.6,7.676,18.818,17.029,22.3a30.605,30.605,0,0,0,15.679,1.281A23.847,23.847,0,0,0,313.969,77.4a32.392,32.392,0,0,0,8.2-14.055c.71-2.479-3.149-3.538-3.857-1.063-2.258,7.882-8.044,15.518-16.266,17.656a26.5,26.5,0,0,1-13.654-.411,20.231,20.231,0,0,1-10.035-6.83A28.2,28.2,0,0,1,272.6,59.515a2.017,2.017,0,0,0-2.461-1.4,2.046,2.046,0,0,0-1.4,2.46Z"/><path class="c" d="M294.981,57.993c.123.6.231,1.212.313,1.823l-.071-.532c.038.289.072.578.111.867l-.071-.531a1.625,1.625,0,0,1,.009.388l.072-.532a.743.743,0,0,1-.048.175l.2-.478a.486.486,0,0,1-.054.087l.313-.4a.363.363,0,0,1-.049.047l.405-.312a.891.891,0,0,1-.159.083l.477-.2a1.413,1.413,0,0,1-.305.086l.532-.072a1.165,1.165,0,0,1-.283,0l.532.071c-.123-.019-.242-.057-.364-.08a1.506,1.506,0,0,0-.8-.036,1.486,1.486,0,0,0-.743.237,2,2,0,0,0-.718,2.737,1.979,1.979,0,0,0,1.2.919c.316.06.592.124.927.156a2.747,2.747,0,0,0,1.327-.26,2.314,2.314,0,0,0,.851-.545,2.434,2.434,0,0,0,.6-1.053,3.585,3.585,0,0,0,0-1.58l.072.531a26.163,26.163,0,0,0-.42-2.652,2.238,2.238,0,0,0-.919-1.2,1.477,1.477,0,0,0-.743-.238,1.526,1.526,0,0,0-.8.036,2.021,2.021,0,0,0-1.195.919l-.2.478a2.018,2.018,0,0,0,0,1.063Z"/><path class="c" d="M282.9,49.91c-.494,1.335-.4,4.475,2.162,4.885,3.4.17,3.8-3.6,2.749-5.438C286.954,47.85,284.231,47.091,282.9,49.91Z"/><path class="c" d="M310.135,51.433c.342,1.381-.105,4.491-2.693,4.613-3.4-.211-3.37-4-2.126-5.711C306.335,48.933,309.125,48.483,310.135,51.433Z"/><path class="c" d="M301.194,70.685a10.148,10.148,0,0,0,1.627-2.954,2.016,2.016,0,0,0-1.929-2.532c-3.275.2-6.553.332-9.835.277a2.011,2.011,0,0,0-1.928,2.531c1.02,2.493,2.4,4.988,4.766,6.436a3.831,3.831,0,0,0,4.616-.475,11.25,11.25,0,0,0,1.162-1.323c.522-.641,1.031-1.294,1.521-1.96a2.006,2.006,0,0,0-.718-2.736,2.057,2.057,0,0,0-2.736.717q-.137.185-.274.368c-.042.056-.3.384-.076.1-.164.2-.327.412-.492.616-.306.375-.608.758-.938,1.113a1.761,1.761,0,0,0-.232.233c-.1.179.361-.2.08-.058-.308.159.36-.107.122-.035-.255.077-.155-.062.116.011a1.018,1.018,0,0,0-.277.008c.284.051.349.055.2.013-.1-.033-.09-.025.038.023.279.132-.1-.076-.156-.11s-.4-.289-.173-.115c.2.157-.055-.049-.092-.079-.09-.074-.181-.148-.269-.225a5.9,5.9,0,0,1-.5-.5c-.066-.073-.129-.149-.194-.223-.318-.363.149.222-.014-.011-.149-.212-.3-.421-.44-.639-.265-.413-.508-.842-.732-1.28q-.168-.328-.323-.665c-.039-.085-.077-.172-.116-.257-.2-.438.167.41-.006-.014l-1.929,2.532c3.282.055,6.56-.074,9.835-.277l-1.928-2.532a1.316,1.316,0,0,0-.073.224c-.028-.034.194-.4.041-.109-.109.208-.217.414-.338.615-.262.438-.555.856-.854,1.269a2.009,2.009,0,0,0,.717,2.737A2.057,2.057,0,0,0,301.194,70.685Z"/><path class="b" d="M186.417,84.758c.52,1.21,1.7,4.56,2.22,5.77a2.867,2.867,0,0,0,.41.75,2.392,2.392,0,0,0,1.41.69,9.181,9.181,0,0,0,1.987.05c-1.072,3.07-7.193,12.763-10.809,17.752a1.994,1.994,0,0,1-2.951.313,111.693,111.693,0,0,1-13.275-13.947,24.664,24.664,0,0,0,3.3-2.518,6.058,6.058,0,0,0,1.23-1.7,7.062,7.062,0,0,0,.23-3.63l-.825-4.237,15.852-3.259Z"/><path class="b" d="M67.707,84.765a27.847,27.847,0,0,1-3.543-1.548,59.01,59.01,0,0,0-5.746-2.643c-1.891-.745-3.521-1.866-3.447-3.856a2.516,2.516,0,0,1,2.556-2.741,19.075,19.075,0,0,1,3.042.3A57.4,57.4,0,0,1,54.6,70.231a5.73,5.73,0,0,1-1.721-2.167,3.268,3.268,0,0,1,.967-3.794A2.862,2.862,0,0,1,57.127,64c-.729-.626-3.263-2.351-1.526-4.986,1.173-1.78,4.183-.881,5.1-.235-.7-.88-.306-2.236-.052-2.914a3.187,3.187,0,0,1,3.084-1.9,6.8,6.8,0,0,1,2.873.888c3.017,2.042,4.718,3.267,8.257,5.657l.68.4c-.012-.041-.02-.08-.029-.118a5.136,5.136,0,0,1-.037-3.025,3.167,3.167,0,0,1,2.832-1.641,5.752,5.752,0,0,1,3.037,1.7c4.071,4.3,6.761,10.558,8.587,16.834.83.565,2.7,1.875,4.26,2.8A37.042,37.042,0,0,0,87.4,90.651c-.065.232-.127.473-.172.715-2.179-1.123-4.886-2.873-6.617-3.56A52.568,52.568,0,0,1,67.707,84.765Z"/><path class="b" d="M214.194,114.866c1.228,8.274,2.048,12.043,3.817,21,0,0-48.058,12.443-54.926,13.844-2.266-6.689-4.623-13.662-7.1-20.491l-1.015-.355c-6.673-2.336-15.921-5.635-22.054-9.154L88.973,94.5a3.664,3.664,0,0,1-1.641-1.455,3.5,3.5,0,0,1,.065-2.389,37.328,37.328,0,0,1,7.636-14.232,1.593,1.593,0,0,1,1.812-.41C103.581,78.8,109.468,81,116.06,84.151c10.1,4.827,19.858,10.652,30.694,13.487a23.5,23.5,0,0,0,7.1.547,42.64,42.64,0,0,0,4.332-.579c2.223-.444,5.023-1.265,7.118-1.608a115.843,115.843,0,0,0,15,15.534,145.174,145.174,0,0,0,11.416-17.875l3.818-2.278c3.254.03,6.538-.588,9.824-.479a44.593,44.593,0,0,1,8.961,1.531L228.55,95.87Z"/><path class="c" d="M155.5,126.937c-4.425-1.55-8.845-3.127-13.177-4.923a114.941,114.941,0,0,1-13.138-6.748L99.245,98.083l-7.54-4.326c-.54-.31-2.386-.994-2.574-1.628-.108-.366.214-1.017.313-1.359q.3-1.028.662-2.036a34.944,34.944,0,0,1,3.236-6.647,35.382,35.382,0,0,1,2.017-2.93c.274-.356.683-1.146,1.088-1.324-.164.072-.366.044-.134.1a11.522,11.522,0,0,1,1.336.551c4.947,2.026,9.931,3.964,14.8,6.177,4.78,2.173,9.425,4.625,14.123,6.966a117.71,117.71,0,0,0,16.192,6.922,31.328,31.328,0,0,0,7.6,1.6,47.507,47.507,0,0,0,7.828-.543,2.054,2.054,0,0,0,2-2,2.014,2.014,0,0,0-2-2,49.409,49.409,0,0,1-7.446.566,26.489,26.489,0,0,1-6.7-1.407,108.714,108.714,0,0,1-15.248-6.487c-5.047-2.511-10.032-5.148-15.179-7.453-5.2-2.327-10.494-4.465-15.788-6.56-3.006-1.189-4.648,1.145-6.254,3.321a37.458,37.458,0,0,0-4,6.826c-1.033,2.291-2.4,5.094-2.421,7.652-.028,3.115,3.108,4.327,5.4,5.641L122.43,116c5.281,3.03,10.475,6.243,16.06,8.692,5.217,2.288,10.576,4.221,15.95,6.1,2.434.853,3.481-3.01,1.063-3.857Z"/><path class="c" d="M148.63,115.672c5.171,12.5,9.4,25.367,13.746,38.17.824,2.424,4.689,1.383,3.857-1.064-4.349-12.8-8.574-25.668-13.746-38.169a2.066,2.066,0,0,0-2.461-1.4,2.012,2.012,0,0,0-1.4,2.46Z"/><path class="c" d="M212.265,115.4c1.05,7.045,2.437,14.017,3.817,21a2,2,0,1,0,3.857-1.064c-1.38-6.985-2.767-13.957-3.817-21a2.014,2.014,0,0,0-2.46-1.4,2.051,2.051,0,0,0-1.4,2.46Z"/><path class="c" d="M191.26,93.881c6.121-.514,12.463-1.634,18.554-.425,6.108,1.211,12.152,2.879,18.2,4.343,2.5.6,3.569-3.252,1.064-3.858-6.2-1.5-12.4-3.255-18.675-4.434-6.344-1.191-12.78-.161-19.147.374-2.547.214-2.57,4.216,0,4Z"/><path class="c" d="M163.928,97.465a103.5,103.5,0,0,0,7.76,8.733q2.006,2.018,4.1,3.943c1.306,1.208,2.528,2.521,4.443,2.438,1.762-.077,2.757-1.261,3.7-2.586.824-1.162,1.625-2.341,2.413-3.528,1.655-2.493,3.26-5.023,4.784-7.6a31.4,31.4,0,0,0,3.333-6.58c.748-2.469-3.112-3.524-3.857-1.063a12.6,12.6,0,0,1-1.059,2.31c-.695,1.314-1.443,2.6-2.206,3.876q-2.605,4.356-5.469,8.555-.647.953-1.31,1.894a3.04,3.04,0,0,1-.513.711c-.244.155.114.048-.018.028-.26-.038-.732-.661-.918-.832q-.653-.6-1.3-1.2-1.118-1.047-2.211-2.119a105.274,105.274,0,0,1-8.839-9.8,2.01,2.01,0,0,0-2.828,0,2.048,2.048,0,0,0,0,2.828Z"/><path class="c" d="M78.7,63.93c-.391-.921-2.634-5.626-.634-5.811.911-.084,2.076,1.328,2.652,2a26,26,0,0,1,2.589,3.7,45.526,45.526,0,0,1,3.926,8.893c.233.705.432,1.421.665,2.126a3.43,3.43,0,0,0,1.562,1.92c1.246.855,2.5,1.7,3.8,2.472,2.22,1.315,4.234-2.142,2.019-3.454-1.488-.882-2.909-1.866-4.335-2.841l.919,1.195a59.891,59.891,0,0,0-3.9-10.124,26.555,26.555,0,0,0-5.6-7.969,6.753,6.753,0,0,0-4.294-1.919,5.205,5.205,0,0,0-4.073,2.215c-1.877,2.8.095,6.887,1.253,9.615a2.012,2.012,0,0,0,2.737.718A2.054,2.054,0,0,0,78.7,63.93Z"/><path class="c" d="M75.868,58.781q-2.544-1.72-5.066-3.472c-1.64-1.133-3.247-2.494-5.2-3.03a5.6,5.6,0,0,0-6.082,1.627,5.28,5.28,0,0,0-.551,5.882l2.736-2.736c-2.356-1.546-6.172-1.612-7.832.952a4.94,4.94,0,0,0-.33,4.953,8.026,8.026,0,0,0,2.169,2.457l2.424-3.141a5.147,5.147,0,0,0-6.266,1.1,5.4,5.4,0,0,0-.477,6.165c1.067,1.857,2.965,3.041,4.684,4.237a57.859,57.859,0,0,0,5.9,3.572c2.272,1.208,4.3-2.243,2.019-3.454a59.844,59.844,0,0,1-7.581-4.781c-.778-.577-1.876-1.4-1.784-2.432a1.057,1.057,0,0,1,1.482-.954,2.026,2.026,0,0,0,2.58-.515,1.985,1.985,0,0,0-.157-2.627c-.851-.714-1.813-1.274-1.4-2.25.349-.828,2.034-.166,2.547.17a2.014,2.014,0,0,0,2.737-2.736c-.17-.312-.208-.339-.114-.084a1.646,1.646,0,0,0-.006-.314,3.759,3.759,0,0,1,.2-.774A1.264,1.264,0,0,1,63.237,56c1.176-.334,2.474.653,3.362,1.26,2.421,1.652,4.822,3.332,7.25,4.973,2.139,1.445,4.143-2.019,2.019-3.454Z"/><path class="c" d="M60.741,72.3c-2.934-.451-6.384-.657-7.509,2.8a5.287,5.287,0,0,0,.843,4.881,9.467,9.467,0,0,0,4.166,2.664c2.736,1.114,5.283,2.615,8.028,3.7a55.164,55.164,0,0,0,9.5,2.773q1.326.264,2.666.447c.455.062.911.12,1.369.169.569.06.277-.005.8.255,1.832.908,3.562,2.012,5.366,2.973,2.27,1.211,4.293-2.24,2.019-3.453-1.753-.935-3.437-2-5.211-2.9a6.9,6.9,0,0,0-2.487-.832c-.736-.076-1.462-.16-2.191-.284a54.627,54.627,0,0,1-10.317-2.833,35.724,35.724,0,0,1-3.411-1.6c-1.771-.9-3.608-1.623-5.423-2.424-.852-.375-2.61-1.23-1.86-2.482.134-.223.235-.166.438-.186a8.841,8.841,0,0,1,2.151.178,2.063,2.063,0,0,0,2.46-1.4,2.015,2.015,0,0,0-1.4-2.46Z"/><path class="c" d="M59.687,60.505c3.281,2.145,6.378,4.563,9.654,6.714a2.014,2.014,0,0,0,2.736-.717,2.046,2.046,0,0,0-.717-2.737c-3.276-2.151-6.373-4.569-9.654-6.713a2.015,2.015,0,0,0-2.736.717,2.045,2.045,0,0,0,.717,2.736Z"/><path class="c" d="M56.118,65.727c3.282,2.141,6.5,4.373,9.782,6.521a2.015,2.015,0,0,0,2.737-.718,2.045,2.045,0,0,0-.718-2.736c-3.278-2.148-6.5-4.38-9.782-6.521a2.016,2.016,0,0,0-2.737.717,2.047,2.047,0,0,0,.718,2.737Z"/><path class="c" d="M168.167,88.288c.047.41.092.822.111,1.234.009.183.014.367.011.55,0,.114,0,.227-.013.341,0,.068-.052.373,0,.071.061-.331-.013.063-.028.133q-.027.132-.063.261c-.024.087-.054.171-.081.257-.127.407.145-.244.019-.047-.105.165-.2.342-.3.51-.148.241.064-.021.078-.088-.017.081-.16.195-.211.254a8.892,8.892,0,0,1-.741.775c-.141.129-.286.252-.434.372-.046.037-.287.226-.057.048.251-.194-.064.046-.118.085-.637.47-1.3.9-1.944,1.367a2.167,2.167,0,0,0-.919,1.195,2.047,2.047,0,0,0,.2,1.541,2.023,2.023,0,0,0,2.736.718,20.5,20.5,0,0,0,4.273-3.475,6.376,6.376,0,0,0,1.467-2.974,11.3,11.3,0,0,0,.011-3.128,2.176,2.176,0,0,0-.586-1.414,2.033,2.033,0,0,0-1.414-.586c-.982.044-2.127.887-2,2Z"/><path class="c" d="M184.69,85.767c-.341-.8-.061-.141.015.051.068.171.134.342.2.513.153.4.3.8.453,1.2.32.856.635,1.713.964,2.565.118.306.238.611.365.913q.369.873.069.166.121.3.252.591a2.828,2.828,0,0,0,.2.374,3.863,3.863,0,0,0,1.141,1.147,6.845,6.845,0,0,0,4.093.731,2,2,0,0,0,0-4c-.308.012-.615.027-.923.028-.123,0-.246,0-.369-.006-.079,0-.159-.008-.238-.014q-.327-.032.185.032c-.214-.075-.463-.106-.683-.169-.146-.052-.069-.019.23.1-.064-.03-.126-.064-.187-.1-.129-.087-.119-.075.03.034s.157.123.042.019c.377.432.09.121.009-.031q-.043-.081-.081-.165.255.614-.1-.228c.324.774.1.231.024.048-.135-.339-.265-.679-.4-1.02-.607-1.6-1.176-3.221-1.849-4.8a2,2,0,0,0-1.195-.92,2.05,2.05,0,0,0-1.542.2,2.02,2.02,0,0,0-.919,1.195,2.354,2.354,0,0,0,.2,1.541Z"/><path class="c" d="M75.244,63.93a10.358,10.358,0,0,0-.9,3.868,15.258,15.258,0,0,0,.35,3.6,2.013,2.013,0,0,0,2.46,1.4,2.051,2.051,0,0,0,1.4-2.461c-.067-.333-.125-.667-.171-1l.071.532a11.362,11.362,0,0,1-.038-2.878l-.072.532a7.584,7.584,0,0,1,.482-1.856l-.2.478c.026-.062.053-.124.08-.185a2.173,2.173,0,0,0,.2-1.541,2,2,0,0,0-2.46-1.4,1.942,1.942,0,0,0-1.2.919Z"/><path class="b" d="M197.685,44.575a4.3,4.3,0,0,1,3.253-1.507,4.061,4.061,0,0,1,3.176,1.485,5.739,5.739,0,0,1,.938,2.2,17.2,17.2,0,0,1-.379,9.28,10.934,10.934,0,0,1-2.245,4.091A3.37,3.37,0,0,1,198.5,61.2a33.876,33.876,0,0,1-4.535,12.8A24.5,24.5,0,0,1,181.48,84.766a37.489,37.489,0,0,1-6.869,1.756,42.21,42.21,0,0,1-6.531.278,24.8,24.8,0,0,1-15.65-6.565,33.784,33.784,0,0,1-7.886-10.459c-1.73,1.141-3.245.4-4.44-.288a10.949,10.949,0,0,1-3.348-3.25,17.209,17.209,0,0,1-3.091-8.759,5.757,5.757,0,0,1,.251-2.373,4.062,4.062,0,0,1,2.6-2.354,4.3,4.3,0,0,1,3.553.484s-5.727-25.128,22.169-30.528C195.925,16.188,197.685,44.575,197.685,44.575Z"/><path class="g" d="M145.134,39.729c-.423.692-.848,1.373-1.276,2.027l-.313.876c-.809,2.274-.88,6.312-2.832,11.153a4.115,4.115,0,0,0-4.02-1.072c-2.97-4.484-4.387-13.342-3.885-18.852.493-5.4,2.623-10.645,5.376-12.819l3.623-5.361c4.346-6.52,11.17-9.98,18.256-11.157,7.683-1.275,15.214-.58,21.656,4.872l6.019,2.952c4.492,1.449,8.9,6.308,10.87,9.773,2.846,5.01,4.761,13.824,3.744,21.194a4.2,4.2,0,0,0-4.985,1.736,36.455,36.455,0,0,0-6.139-13.579c-1.045-1.345-3.827-1.463-5.3-2.316a56.169,56.169,0,0,0-14.59-1.4c-3.2.081-8.122-.265-8.122-.265-4.479.045-7.734-.155-11.256,2.611C149.662,31.9,147.432,35.972,145.134,39.729Z"/><path class="c" d="M199.1,45.989a2.264,2.264,0,0,1,3.429-.227A5.265,5.265,0,0,1,203.3,48.1a15.365,15.365,0,0,1-.969,8.514,7.646,7.646,0,0,1-1.493,2.28,1.439,1.439,0,0,1-1.561.483,2.012,2.012,0,0,0-2,2,2.047,2.047,0,0,0,2,2c3.017.338,5.241-2.1,6.442-4.6a18.709,18.709,0,0,0,1.788-8.715c-.108-2.856-.623-6.246-3.166-7.972a6.3,6.3,0,0,0-8.068,1.076c-1.7,1.92,1.117,4.76,2.829,2.828Z"/><path class="c" d="M141.077,51.509a6.3,6.3,0,0,0-8.09,1.3c-1.978,2.431-1.43,5.994-.625,8.8a18.723,18.723,0,0,0,4.18,7.54c1.934,2.076,5.057,3.989,7.954,2.878a2.058,2.058,0,0,0,1.4-2.46,2.014,2.014,0,0,0-2.46-1.4c-1.528.586-3.071-.784-4.062-1.849a14.022,14.022,0,0,1-2.887-4.937,15.768,15.768,0,0,1-.734-2.982,5.46,5.46,0,0,1,.047-2.62,2.25,2.25,0,0,1,3.262-.819c2.2,1.349,4.212-2.109,2.018-3.454Z"/><path class="c" d="M162.555,20.583a13.283,13.283,0,0,1,1.386.369c.238.078.472.166.707.255.349.132-.264-.122-.036-.018.1.047.208.092.311.14a13.341,13.341,0,0,1,1.265.677c.407.247.776.573,1.187.808-.185-.106-.244-.192-.029-.016q.132.108.261.219.26.224.507.459a13.664,13.664,0,0,1,.984,1.044c.074.087.145.176.217.264.3.364-.252-.358.021.028.131.186.265.37.39.561a13.031,13.031,0,0,1,.75,1.3,2.015,2.015,0,0,0,2.737.718,2.05,2.05,0,0,0,.717-2.737,15.33,15.33,0,0,0-10.312-7.93,2,2,0,0,0-1.063,3.857Z"/><path class="c" d="M174.972,21.927a8.311,8.311,0,0,1,.853.574l-.4-.313a8.52,8.52,0,0,1,1.45,1.453l-.313-.4a8.557,8.557,0,0,1,1.08,1.846l-.2-.478a8.249,8.249,0,0,1,.521,1.809,2.006,2.006,0,0,0,.919,1.2,2.039,2.039,0,0,0,1.541.2,2.017,2.017,0,0,0,1.195-.919,2.285,2.285,0,0,0,.2-1.541,10.118,10.118,0,0,0-4.823-6.877,2,2,0,0,0-2.019,3.454Z"/><path class="c" d="M185.911,29.684a12.932,12.932,0,0,1,4.065,3.439,30.755,30.755,0,0,1,2.595,4.559,35.646,35.646,0,0,1,3.022,8.752,2.017,2.017,0,0,0,2.46,1.4,2.043,2.043,0,0,0,1.4-2.46,39.892,39.892,0,0,0-3.542-9.951,28.842,28.842,0,0,0-2.816-4.78,17.269,17.269,0,0,0-5.162-4.41c-2.223-1.309-4.238,2.147-2.019,3.454Z"/><path class="c" d="M136.77,19.628c-2.257,1.861-3.615,4.693-4.551,7.4a28.4,28.4,0,0,0-1.507,9.536c.062,5.646,1.1,11.989,4.077,16.88,1.337,2.2,4.8.188,3.454-2.019-2.563-4.212-3.423-9.659-3.526-14.52-.1-4.823.933-11.2,4.881-14.453,1.988-1.638-.856-4.454-2.828-2.828Z"/><path class="c" d="M187.207,14.277c4.811,1.643,8.84,6.492,10.765,11.066a35.551,35.551,0,0,1,2.429,17.59,2.013,2.013,0,0,0,2,2,2.048,2.048,0,0,0,2-2,38.785,38.785,0,0,0-3.046-19.773c-2.427-5.49-7.327-10.774-13.085-12.74-2.441-.834-3.489,3.028-1.063,3.857Z"/><path class="c" d="M141.424,67.576c3.938,10.106,12.472,19.26,23.6,20.924a34.237,34.237,0,0,0,17.9-2.173,26.82,26.82,0,0,0,11.753-9.757,36.127,36.127,0,0,0,6.088-17.855c.189-2.568-3.812-2.556-4,0-.682,9.267-5.433,19-13.993,23.311A30.327,30.327,0,0,1,167.5,84.772a22.846,22.846,0,0,1-13.312-5.653,32.067,32.067,0,0,1-8.9-12.606,2.059,2.059,0,0,0-2.46-1.4,2.014,2.014,0,0,0-1.4,2.46Z"/><path class="c" d="M143.533,16.69c3.857-5.682,10.034-8.989,16.7-10.174,7.06-1.257,14.41-.414,20.076,4.294,1.966,1.633,4.811-1.181,2.828-2.829A24.88,24.88,0,0,0,171.7,2.473a35.125,35.125,0,0,0-12.164.123A28.972,28.972,0,0,0,140.08,14.672c-1.45,2.135,2.014,4.139,3.453,2.018Z"/><path class="c" d="M163.341,25a20.625,20.625,0,0,0-9.688,3.113,31.442,31.442,0,0,0-7.183,6.192,27.006,27.006,0,0,0-5.221,9.635c-.932,3.229-1.529,6.653-2.174,9.95-.493,2.514,3.362,3.591,3.857,1.063.568-2.9,1.2-5.8,1.85-8.683a22.329,22.329,0,0,1,4.289-8.858c3.478-4.407,8.592-7.95,14.27-8.412,2.548-.207,2.57-4.209,0-4Z"/><path class="c" d="M169.625,57.738a30.673,30.673,0,0,0-.54,3.083l.071-.532a4.066,4.066,0,0,0-.012,1.666,2.4,2.4,0,0,0,1.274,1.59,3.306,3.306,0,0,0,1.655.392c.353-.029.686-.108,1.031-.167a2.014,2.014,0,0,0,1.195-.919,2,2,0,0,0-.718-2.737l-.477-.2a2,2,0,0,0-1.064,0c-.14.024-.277.064-.418.086l.531-.071a1.455,1.455,0,0,1-.349,0l.532.071a1.6,1.6,0,0,1-.377-.111l.478.2a1.057,1.057,0,0,1-.2-.107l.405.313a.405.405,0,0,1-.058-.059l.313.405a.63.63,0,0,1-.063-.106l.2.478a.915.915,0,0,1-.053-.212l.071.532a1.94,1.94,0,0,1,.014-.424l-.072.532c.037-.258.07-.517.1-.775l-.071.532c.11-.8.272-1.606.449-2.4a2.11,2.11,0,0,0-.2-1.541,2,2,0,0,0-3.655.478Z"/><path class="c" d="M155.063,53.765c-.234,1.552.577,4.92,3.432,4.788,3.711-.58,3.289-4.737,1.746-6.489C158.979,50.63,155.869,50.422,155.063,53.765Z"/><path class="c" d="M184.69,49.311c.68,1.415.9,4.873-1.872,5.586-3.718.536-4.536-3.561-3.577-5.689C180.026,47.466,182.937,46.353,184.69,49.311Z"/><path class="c" d="M179.715,75.951a16.789,16.789,0,0,0,1.7-7.833,2.022,2.022,0,0,0-2.532-1.929c-1.8.476-3.6.958-5.421,1.32-.841.167-1.687.3-2.536.425.188-.027.224-.029.014,0l-.355.044c-.279.034-.558.065-.837.095-.581.062-1.163.116-1.745.166a2,2,0,0,0,0,4,60.649,60.649,0,0,0,6.371-.84c1.877-.366,3.725-.86,5.572-1.35l-2.531-1.928c-.008.528-.029,1.056-.071,1.583-.025.307-.057.614-.094.919.025-.207.021-.146-.007.024-.026.154-.051.308-.079.462a13.79,13.79,0,0,1-.394,1.616q-.12.384-.269.759c.07-.178.076-.166-.007,0s-.152.3-.233.451a2,2,0,1,0,3.453,2.019Z"/><path class="b" d="M259.818,106.477a4.172,4.172,0,0,1,3.339-.977,3.941,3.941,0,0,1,2.834,1.884,5.561,5.561,0,0,1,.583,2.241,16.7,16.7,0,0,1-1.7,8.851,10.631,10.631,0,0,1-2.744,3.6,3.2,3.2,0,0,1-3.209.75l-.481-.146c-.3,1.164-.686,2.177-.861,2.673-1.055,2.673-7.29,12.587-15.455,14.842-4.722,2.082-11.992,2.352-16.9,1.16a26.926,26.926,0,0,1-13.976-8.218,29.994,29.994,0,0,1-5.95-10.111l-.712.192a3.986,3.986,0,0,1-3.616-1.142,10.621,10.621,0,0,1-2.744-3.6,16.7,16.7,0,0,1-1.7-8.851,5.561,5.561,0,0,1,.583-2.241,3.941,3.941,0,0,1,2.833-1.884,4.173,4.173,0,0,1,3.34.977s1-24.733,28.359-24.733S259.818,106.477,259.818,106.477Z"/><path class="g" d="M200.173,94.106a30.113,30.113,0,0,1,12.8-21.314,31.583,31.583,0,0,1,18.738-5.767,33.218,33.218,0,0,1,11.061,1.814,31.486,31.486,0,0,1,4.666,2.092,36.548,36.548,0,0,1,5.342,3.543c.64.556,1.579,1.469,2.2,2.093a29.239,29.239,0,0,1,4.06,5.136,30.669,30.669,0,0,1,4.413,14.844,41.077,41.077,0,0,1-.578,8.93,4.124,4.124,0,0,0-3.057,1l-.965.1a4.515,4.515,0,0,1-4.328-2.164l-.485-.805a31.767,31.767,0,0,0-6.09-14.973,2.614,2.614,0,0,0-3.228-.746,52.945,52.945,0,0,1-6.543,2.739c-1.47.5-3.414.879-4.488-.057-1.017-.886-.6-2.492-1.813-3.213a4.106,4.106,0,0,0-2.96-.067c-10.352,2.589-15.924,7.742-19.767,15.725l-.581.991a4.978,4.978,0,0,1-4.22,2.457l-1.071.015a4.081,4.081,0,0,0-2.536-1.008c.191,1.857-.94-4.924-.765-8.922Q200.033,95.295,200.173,94.106Z"/><path class="c" d="M261.232,107.891a2.094,2.094,0,0,1,3.032.5,5.285,5.285,0,0,1,.366,2.291,13.828,13.828,0,0,1-.2,2.786,14.734,14.734,0,0,1-1.977,5.229,7.231,7.231,0,0,1-1.537,1.805,1.348,1.348,0,0,1-1.468.395c-2.49-.664-3.552,3.194-1.063,3.857,3.094.826,5.52-1.157,7.208-3.564a17.937,17.937,0,0,0,2.906-8.09c.329-2.7.312-6.11-1.871-8.073a6.227,6.227,0,0,0-8.227.034,2.015,2.015,0,0,0,0,2.828,2.043,2.043,0,0,0,2.828,0Z"/><path class="c" d="M204.693,105.063a6.229,6.229,0,0,0-8.227-.034c-2.244,2.019-2.2,5.544-1.84,8.3a17.646,17.646,0,0,0,3.041,8.091c1.744,2.392,4.34,4.411,7.45,3.726a2,2,0,0,0-1.063-3.857c-1.265.279-2.628-1.4-3.259-2.354a14.521,14.521,0,0,1-2.1-5.319,13.693,13.693,0,0,1-.229-2.742,5.58,5.58,0,0,1,.37-2.484,2.094,2.094,0,0,1,3.032-.5,2.053,2.053,0,0,0,2.828,0,2.015,2.015,0,0,0,0-2.828Z"/><path class="c" d="M202.307,119.706c2.43,11.774,11.714,21.726,23.715,23.857a33.1,33.1,0,0,0,8.9.351,34.54,34.54,0,0,0,8.045-1.879,26.785,26.785,0,0,0,12.15-9.113c2.934-3.7,5.458-7.837,5.7-12.695.125-2.573-3.875-2.567-4,0a13.383,13.383,0,0,1-.828,3.653c-.055.159-.505,1.331-.226.686-.12.276-.254.547-.393.815a30.566,30.566,0,0,1-2.5,3.953c-2.483,3.393-5.739,6.71-9.663,8.382-9.386,4-20.862,2.978-28.587-4.027a27.924,27.924,0,0,1-8.448-15.046c-.52-2.519-4.376-1.453-3.857,1.063Z"/><path class="c" d="M264.84,105.8c1.392-8.557.579-17.6-4.073-25.1a33.586,33.586,0,0,0-19.933-14.537,35.965,35.965,0,0,0-25.027,2.569,33.543,33.543,0,0,0-13.741,13.129A32.329,32.329,0,0,0,198.186,94a42.515,42.515,0,0,0,.539,11.8,2.014,2.014,0,0,0,2.46,1.4,2.049,2.049,0,0,0,1.4-2.461c-1.008-6.231-.876-12.7,1.76-18.541a29.4,29.4,0,0,1,10.719-12.41c12.776-8.347,31.037-5.454,40.541,6.479,5.469,6.867,6.76,15.99,5.381,24.47a2.061,2.061,0,0,0,1.4,2.46,2.016,2.016,0,0,0,2.46-1.4Z"/><path class="c" d="M210.508,105.653C213.944,98.578,219.2,92.626,226.8,90a21.7,21.7,0,0,1,3.024-.872c.272-.051.779-.2,1.044-.047-.253-.15.115.562.182.767a4.564,4.564,0,0,0,4.923,3.276c2.493-.164,4.948-1.336,7.206-2.32q.862-.376,1.711-.781c.292-.139.744-.485,1.1-.41.67.144,1.191,1.357,1.514,1.882a39.127,39.127,0,0,1,4.909,14.419,2.015,2.015,0,0,0,2.46,1.4,2.049,2.049,0,0,0,1.4-2.46,43.611,43.611,0,0,0-4.72-14.366c-1.176-2.109-2.587-4.595-5.242-4.84a6.355,6.355,0,0,0-3.432.925q-2.115,1.011-4.321,1.807c-.861.313-2.356,1.05-3.31.756-.216-.067-.24-.07-.242-.073a8.55,8.55,0,0,1-.548-1.606c-1.2-2.737-4.183-2.608-6.648-1.943a30.655,30.655,0,0,0-12.179,6.452,36.4,36.4,0,0,0-8.569,11.669c-1.12,2.306,2.328,4.337,3.454,2.019Z"/><path class="c" d="M250.073,138.113a56.136,56.136,0,0,1,9.9,3.854,29.1,29.1,0,0,1,4.264,2.536c1.539,1.166,2.992,2.472,4.433,3.755,1.916,1.707,4.755-1.112,2.828-2.828q-2.231-1.986-4.559-3.857a29.237,29.237,0,0,0-4.947-3.059,61.719,61.719,0,0,0-10.85-4.258c-2.474-.73-3.531,3.129-1.064,3.857Z"/><path class="c" d="M195.131,149.98c5.408-5.582,12.486-9.276,19.652-12.089a2.06,2.06,0,0,0,1.4-2.46,2.014,2.014,0,0,0-2.46-1.4c-7.814,3.067-15.512,7.024-21.416,13.117-1.792,1.85,1.033,4.682,2.828,2.829Z"/><path class="b" d="M184.756,151.2c.012-4,5.627-9.924,12.746-9.321,4.509.383,6.109-.465,9.348,2.695,2.947,2.875,3.634,7.086,3.383,11.211-.057.565-.166,1.728-.166,1.728-.189,2-.828,3.554-2.417,4.3a3.838,3.838,0,0,1-4.5-.967c-.122,1.892-1.1,3.12-2.8,3.224s-3.52-.747-3.866-2.28a3.069,3.069,0,0,1-3.142,1.429c-1.078-.211-2.855-1.169-2.991-2.481-.481,1.3-2.614,1.262-3.9.327s-1.511-2.7-1.542-4.293-.189-4.28-.157-5.57"/><path class="b" d="M203.154,160.839c.07-1.965.125-5.742.03-7.64"/><path class="b" d="M196.557,161.152a73.117,73.117,0,0,0,.093-7.981"/><path class="b" d="M190.557,160.041c.129-1.816.222-4.611.139-6.286"/><path class="c" d="M186.756,151.2c.051-1.845,1.731-3.925,3.354-5.155a11.078,11.078,0,0,1,3.934-1.9,15.606,15.606,0,0,1,4.761-.18c2.53.119,4.4-.06,6.349,1.755,2.531,2.356,3.193,5.732,3.12,9.067a12.582,12.582,0,0,1-.512,4.084c-.58,1.482-2.1,1.611-3.194.56a2.026,2.026,0,0,0-3.414,1.414c-.055.585-.21,1.09-.8,1.224-.627.142-1.74-.147-1.937-.812a2.024,2.024,0,0,0-3.656-.477c-.138.261-.04.257-.441.382a1.3,1.3,0,0,1-.811.031c-.508-.136-1.121-.449-1.225-.988a2.02,2.02,0,0,0-3.656-.477c-.182.377.107.1-.119.021-.3-.113-.628-.091-.9-.312-.627-.511-.654-1.581-.687-2.323-.088-1.964-.2-3.947-.167-5.913.041-2.575-3.959-2.576-4,0-.024,1.546.078,3.094.131,4.639a12.026,12.026,0,0,0,.83,4.959c1.4,2.9,6.671,4.444,8.366.947l-3.655-.477c.832,4.3,7.724,5.433,9.788,1.529l-3.655-.477a5.633,5.633,0,0,0,6.1,3.715c2.824-.288,4.24-2.558,4.489-5.191l-3.414,1.414a5.962,5.962,0,0,0,6.68,1.381,6.3,6.3,0,0,0,3.483-4.865c.707-4.111.572-8.612-1.3-12.4a11,11,0,0,0-9.215-6.317c-4.163-.24-8.136-.454-11.908,1.645-3.393,1.888-6.612,5.431-6.725,9.5-.071,2.575,3.929,2.573,4,0Z"/><path class="c" d="M205.154,160.839c.089-2.54.153-5.1.03-7.64a2,2,0,0,0-4,0c.123,2.54.059,5.1-.03,7.64a2.016,2.016,0,0,0,2,2,2.041,2.041,0,0,0,2-2Z"/><path class="c" d="M198.557,161.152a61.267,61.267,0,0,0,.093-7.981,2,2,0,0,0-4,0,61.267,61.267,0,0,1-.093,7.981,2.015,2.015,0,0,0,2,2,2.043,2.043,0,0,0,2-2Z"/><path class="c" d="M192.557,160.041a53.6,53.6,0,0,0,.139-6.286,2,2,0,0,0-4,0,53.6,53.6,0,0,1-.139,6.286,2.011,2.011,0,0,0,2,2,2.047,2.047,0,0,0,2-2Z"/><path class="b" d="M280.606,151.2c-.012-4-5.626-9.924-12.745-9.321-4.509.383-6.109-.465-9.348,2.695-2.947,2.875-3.635,7.086-3.383,11.211.056.565.166,1.728.166,1.728.188,2,.828,3.554,2.417,4.3a3.836,3.836,0,0,0,4.5-.967c.122,1.892,1.1,3.12,2.8,3.224s3.52-.747,3.865-2.28a3.069,3.069,0,0,0,3.142,1.429c1.078-.211,2.856-1.169,2.991-2.481.482,1.3,2.615,1.262,3.9.327s1.512-2.7,1.543-4.293.189-4.28.156-5.57"/><path class="b" d="M262.208,160.839c-.069-1.965-.125-5.742-.03-7.64"/><path class="b" d="M268.805,161.152a73.1,73.1,0,0,1-.092-7.981"/><path class="b" d="M274.805,160.041a62.815,62.815,0,0,1-.138-6.286"/><path class="c" d="M282.606,151.2c-.1-3.617-2.646-6.692-5.466-8.7a14.163,14.163,0,0,0-5.625-2.4,30.544,30.544,0,0,0-6.413-.086,12.418,12.418,0,0,0-4.816.848,11.965,11.965,0,0,0-4.755,4.193c-2.461,3.585-2.678,8.156-2.247,12.338.235,2.274.864,4.489,2.867,5.83a5.938,5.938,0,0,0,7.472-.964l-3.415-1.414c.25,2.634,1.665,4.9,4.49,5.191a5.633,5.633,0,0,0,6.1-3.715l-3.656.477c2.064,3.9,8.957,2.774,9.789-1.529l-3.656.477c1.695,3.5,6.964,1.956,8.367-.947a12.039,12.039,0,0,0,.83-4.959c.053-1.545.155-3.093.13-4.639-.04-2.571-4.04-2.579-4,0,.031,1.966-.079,3.949-.166,5.913a3.463,3.463,0,0,1-.573,2.2,1.692,1.692,0,0,1-.968.436c-.319.064.011.338-.166-.027a2.019,2.019,0,0,0-3.655.477c-.1.539-.719.852-1.225.988a1.157,1.157,0,0,1-.657.012c-.447-.118-.468-.183-.6-.425a2.022,2.022,0,0,0-3.655.477c-.2.665-1.309.954-1.937.812-.591-.134-.744-.635-.8-1.224a2.027,2.027,0,0,0-3.414-1.414c-.923.884-2.3,1.052-3.012-.172a7.536,7.536,0,0,1-.616-3.1c-.286-3.192-.009-6.859,2.093-9.447a7.678,7.678,0,0,1,2.919-2.327,9.442,9.442,0,0,1,3.228-.378,29.571,29.571,0,0,1,4.778-.093,11.109,11.109,0,0,1,7.167,4.242,6.02,6.02,0,0,1,1.255,3.046c.071,2.569,4.072,2.579,4,0Z"/><path class="c" d="M264.208,160.839c-.088-2.54-.153-5.1-.03-7.64a2.014,2.014,0,0,0-2-2,2.045,2.045,0,0,0-2,2c-.123,2.54-.058,5.1.03,7.64a2,2,0,0,0,4,0Z"/><path class="c" d="M270.805,161.152a61.444,61.444,0,0,1-.092-7.981,2.008,2.008,0,0,0-2-2,2.051,2.051,0,0,0-2,2,61.444,61.444,0,0,0,.092,7.981,2,2,0,0,0,4,0Z"/><path class="c" d="M276.805,160.041a53.6,53.6,0,0,1-.138-6.286,2.015,2.015,0,0,0-2-2,2.043,2.043,0,0,0-2,2,53.6,53.6,0,0,0,.138,6.286,2.128,2.128,0,0,0,.586,1.414,2,2,0,0,0,3.414-1.414Z"/><path class="c" d="M226.566,128.705a9.719,9.719,0,0,0,11.626,0,2,2,0,1,0-2.829-2.828c-.077.075-.365.3-.033.049s-.03.011-.127.071c-.114.07-.232.134-.351.194-.079.04-.168.071-.245.115.094-.053.475-.181.16-.073a8.282,8.282,0,0,1-1.169.32l-.2.034c-.152.024-.087.016.193-.023a1.164,1.164,0,0,1-.359.036c-.286.024-.572.035-.859.035-.262,0-.525-.009-.786-.029a3.964,3.964,0,0,0-.433-.042c.192-.009.365.055.062,0a7.2,7.2,0,0,1-1.185-.313c-.16-.058-.42-.226.112.055-.066-.035-.137-.062-.2-.095q-.2-.1-.389-.214c-.1-.06-.186-.132-.282-.191.581.357.284.229.122.071a2,2,0,0,0-2.828,2.828Z"/><path class="c" d="M231.284,116.517a23.087,23.087,0,0,1,.544,2.491l-.071-.532a1.522,1.522,0,0,1,.009.344l.072-.532a.9.9,0,0,1-.038.155l.2-.478a.591.591,0,0,1-.054.1l.313-.4a.517.517,0,0,1-.082.08l.405-.313a1.609,1.609,0,0,1-.2.1l.477-.2a1.471,1.471,0,0,1-.332.1l.532-.072a1.3,1.3,0,0,1-.312,0l.531.071c-.117-.016-.233-.045-.35-.061a1.515,1.515,0,0,0-.8-.035,1.492,1.492,0,0,0-.744.237,2,2,0,0,0-.717,2.736l.313.405a1.992,1.992,0,0,0,.882.515c.332.044.654.127.993.142a3.3,3.3,0,0,0,1.544-.38,2.383,2.383,0,0,0,1.275-1.554,3.57,3.57,0,0,0-.012-1.593c-.135-.8-.321-1.6-.527-2.384a2,2,0,0,0-2.46-1.4,2.025,2.025,0,0,0-1.2.919,2.1,2.1,0,0,0-.2,1.541Z"/><path class="c" d="M217.592,109.147c-.448,1.456-.156,4.806,2.6,5.091,3.646-.022,3.84-4.071,2.613-5.975C221.8,106.7,218.847,106.056,217.592,109.147Z"/><path class="c" d="M246.665,109.148c.448,1.455.156,4.805-2.6,5.09-3.645-.022-3.839-4.072-2.612-5.975C242.455,106.7,245.41,106.056,246.665,109.148Z"/><path class="c" d="M280.417,151.041c18.377-1.192,36.771-2.464,55.077-4.5a2.059,2.059,0,0,0,2-2,2.013,2.013,0,0,0-2-2c-18.306,2.033-36.7,3.3-55.077,4.5-2.556.166-2.574,4.167,0,4Z"/><path class="c" d="M210.221,154.506c14.893-.532,29.777-1.057,44.655-1.912,2.559-.147,2.576-4.148,0-4-14.878.855-29.762,1.38-44.655,1.912-2.567.091-2.579,4.092,0,4Z"/><path class="c" d="M150.557,156.227q16.9-.3,33.786-.838c2.567-.082,2.579-4.082,0-4q-16.891.538-33.786.838c-2.571.045-2.579,4.045,0,4Z"/><path class="c" d="M340.226.967c-1.292,2.513-2.631,5.01-4.06,7.447a2,2,0,1,0,3.454,2.019C341.049,8,342.388,5.5,343.68,2.986A2.036,2.036,0,0,0,342.963.25a2.03,2.03,0,0,0-2.737.717Z"/><path class="c" d="M349.2,10.838q-3.691,1.856-7.474,3.518a2,2,0,0,0-.919,1.2,2.043,2.043,0,0,0,.2,1.541,2.017,2.017,0,0,0,1.195.919,2.317,2.317,0,0,0,1.541-.2q3.781-1.662,7.474-3.518a2.014,2.014,0,0,0,.717-2.737,2.048,2.048,0,0,0-2.736-.717Z"/><path class="c" d="M353.721,23.639q-4.128-.669-8.182-1.706a2,2,0,1,0-1.064,3.857q4.051,1.037,8.182,1.706a2.18,2.18,0,0,0,1.542-.2,2.046,2.046,0,0,0,.919-1.2,2.025,2.025,0,0,0-1.4-2.461Z"/><path class="c" d="M115.225,3.489c1.293,2.512,2.632,5.009,4.06,7.447a2,2,0,0,0,3.454-2.019c-1.428-2.438-2.767-4.935-4.06-7.447a2.015,2.015,0,0,0-2.736-.718,2.047,2.047,0,0,0-.718,2.737Z"/><path class="c" d="M107.689,14.794q3.692,1.855,7.474,3.519a2.183,2.183,0,0,0,1.541.2,2,2,0,0,0,.478-3.655Q113.4,13.2,109.708,11.34a2,2,0,0,0-2.019,3.454Z"/><path class="c" d="M106.248,28q4.128-.671,8.182-1.707a2,2,0,1,0-1.063-3.857q-4.052,1.037-8.182,1.707a2,2,0,0,0-1.2.919A2,2,0,0,0,106.248,28Z"/></svg>