<svg xmlns="http://www.w3.org/2000/svg" width="522.384" height="152.244" xmlns:v="https://vecta.io/nano"><defs><clipPath id="A"><path d="M0 1800h800V0H0z" transform="translate(-561.664 -1548.138)"/></clipPath><clipPath id="B"><path d="M0 1800h800V0H0z" transform="translate(-512.704 -1530.267)"/></clipPath><clipPath id="C"><path d="M0 1800h800V0H0z" transform="translate(-467.142 -1546.105)"/></clipPath><clipPath id="D"><path d="M0 1800h800V0H0z" transform="translate(-588.991 -1476.449)"/></clipPath><clipPath id="E"><path d="M0 1800h800V0H0z" transform="translate(-332.801 -1565.845)"/></clipPath><clipPath id="F"><path d="M0 1800h800V0H0z" transform="translate(-386.035 -1551.014)"/></clipPath><clipPath id="G"><path d="M0 1800h800V0H0z" transform="translate(-244.344 -1516.055)"/></clipPath><clipPath id="H"><path d="M0 1800h800V0H0z" transform="translate(-267.385 -1565.845)"/></clipPath></defs><g transform="matrix(1.333333 0 0 -1.333333 910.41463 2028.7637)"><g transform="translate(-619.249 1496.786)" clip-path="url(#H)"><path d="M0 0h-9.534a2.65 2.65 0 0 1-2.649-2.648v-59.325a2.65 2.65 0 0 1 2.649-2.649H0a2.65 2.65 0 0 1 2.648 2.649v59.325A2.65 2.65 0 0 1 0 0"/></g><g transform="translate(-642.29 1446.996)" clip-path="url(#G)"><path d="M0 0h-25.69v47.142a2.65 2.65 0 0 1-2.648 2.648h-9.535a2.65 2.65 0 0 1-2.648-2.648v-59.325a2.65 2.65 0 0 1 2.648-2.649H0a2.65 2.65 0 0 1 2.648 2.649v9.535A2.65 2.65 0 0 1 0 0"/></g><g transform="translate(-500.599 1481.955)" clip-path="url(#F)"><path d="M0 0a2.65 2.65 0 0 1 2.648 2.648v9.535A2.65 2.65 0 0 1 0 14.831h-37.873a2.65 2.65 0 0 1-2.648-2.648v-59.325a2.65 2.65 0 0 1 2.648-2.649H0a2.65 2.65 0 0 1 2.648 2.649v9.535A2.65 2.65 0 0 1 0-34.959h-25.69v10.064H0a2.65 2.65 0 0 1 2.648 2.648v9.535A2.65 2.65 0 0 1 0-10.064h-25.69V0z"/></g><g transform="translate(-553.833 1496.786)" clip-path="url(#E)"><path d="M0 0h-9.534a2.65 2.65 0 0 1-2.649-2.648v-34.327L-37.134-1.3C-37.841-.288-38.896 0-40.067 0c-.148.025-.299 0-.454 0h-9.534a2.65 2.65 0 0 1-2.648-2.648v-59.325a2.65 2.65 0 0 1 2.648-2.649h9.534a2.65 2.65 0 0 1 2.649 2.649v35.852l26.014-37.195c.093-.134.197-.255.305-.369.448-.527 1.098-.885 1.832-.937h.478H0a2.65 2.65 0 0 1 2.648 2.649v59.325A2.65 2.65 0 0 1 0 0"/></g><g transform="translate(-297.643 1407.39)" clip-path="url(#D)"><path d="M0 0h-168.792a6.62 6.62 0 0 0-6.62 6.62v100.944a6.62 6.62 0 0 0 6.62 6.619H0a6.62 6.62 0 0 0 6.62-6.619V6.62A6.62 6.62 0 0 0 0 0" fill="#08bf5b"/></g><g transform="translate(-419.492 1477.046)" clip-path="url(#C)"><path d="M0 0c0 3.847-2.715 6.788-6.411 6.788h-7.919V-6.788h7.919C-2.715-6.788 0-3.847 0 0m12.067 0c0-10.031-8.07-18.101-18.478-18.101h-7.919v-14.816c0-.981-.795-1.776-1.776-1.776h-8.514c-.982 0-1.777.795-1.777 1.776v49.241c0 .982.795 1.777 1.777 1.777h18.209c10.408 0 18.478-8.07 18.478-18.101" fill="#fff"/></g><g transform="translate(-373.93 1461.207)" clip-path="url(#B)"><path d="M0 0c0 5.656-3.771 9.201-8.975 9.201S-17.95 5.656-17.95 0s3.771-9.201 8.975-9.201S0-5.657 0 0m11.313 17.92v-35.84c0-.517-.418-.935-.935-.935H.935c-.516 0-.935.418-.935.935v2.609c-2.489-2.865-6.185-4.6-11.237-4.6-9.881 0-18.026 8.673-18.026 19.911s8.145 19.911 18.026 19.911c5.052 0 8.748-1.735 11.237-4.601v2.61c0 .517.419.935.935.935h9.443c.517 0 .935-.418.935-.935" fill="#fff"/></g><g transform="translate(-324.97 1479.079)" clip-path="url(#A)"><path d="M0 0l-8.682-21.87L-17.659.017a1.56 1.56 0 0 1-1.442.966h-9.628c-.665 0-1.118-.674-.865-1.29l14.978-36.513-5.459-13.75c-.243-.614.209-1.281.869-1.281h9.633a1.56 1.56 0 0 1 1.448.984L11.95-.296c.243.613-.209 1.279-.869 1.279H1.449A1.56 1.56 0 0 1 0 0" fill="#fff"/></g></g></svg>