<svg width="131" height="32" viewBox="0 0 131 32" fill="none" xmlns="http://www.w3.org/2000/svg">
<path d="M106.543 0V23.8912H130.434V0H106.543ZM124.46 17.9164H112.518V5.97482H124.46V17.9164Z" fill="#75C8D1"/>
<path d="M112.51 17.9164V5.97482H124.46L130.435 0H106.535V23.8912L112.51 17.9164Z" fill="#F5A83B"/>
<path d="M14.4811 2.59272C15.258 2.58081 16.035 2.61307 16.8082 2.68935C17.2028 2.68935 18.6763 2.68935 19.2239 2.10153C19.3245 1.99309 19.4008 1.86442 19.4477 1.72412C19.4945 1.58381 19.5109 1.43512 19.4956 1.28798C19.4804 1.14085 19.4339 0.998673 19.3592 0.870959C19.2846 0.743246 19.1836 0.632941 19.0629 0.547434C18.5811 0.176782 17.9773 0.00139399 17.3719 0.0562483H2.8777C2.8777 0.0562483 1.09009 -0.00817597 0.349275 0.95005C0.224014 1.06952 0.127947 1.21623 0.0685198 1.37881C0.00909264 1.54138 -0.0120986 1.71546 0.00658939 1.88754C0.0252774 2.05963 0.0833424 2.22509 0.176283 2.37112C0.269224 2.51715 0.394544 2.63982 0.54253 2.72962C0.932721 2.92708 1.37235 3.00548 1.80674 2.95508C2.73967 2.7107 3.70096 2.59155 4.66531 2.60078L7.42726 2.55247H7.65273L4.27075 17.9002C4.27075 17.9002 3.61046 20.5091 3.10317 21.8539C2.48314 23.5288 4.71363 23.7945 4.71363 23.7945C4.71363 23.7945 7.7252 24.3179 8.20028 22.184L12.2748 2.58468L14.4811 2.59272Z" fill="white"/>
<path d="M27.6866 7.61763L27.1954 7.78673C26.1829 7.32232 25.0878 7.06497 23.9745 7.02981C22.0572 6.92588 20.1597 7.46116 18.5794 8.55169C16.9929 9.79675 15.6753 11.3507 14.7065 13.1195C13.7377 14.8883 13.1377 16.8352 12.9428 18.8426C12.8775 19.5152 12.954 20.194 13.1673 20.8352C13.3807 21.4764 13.7262 22.0657 14.1815 22.565C14.6369 23.0643 15.1919 23.4626 15.8107 23.7341C16.4295 24.0055 17.0984 24.1441 17.7742 24.141C20.1496 24.2215 21.8003 22.4178 23.137 20.751C22.9938 21.3608 22.8916 21.9795 22.831 22.603C22.7425 23.4082 23.6363 24.0363 24.6992 24.0443C25.7621 24.0524 26.7606 23.5371 26.7847 22.7721C26.9533 20.9355 27.2411 19.1118 27.6463 17.3126L28.2986 14.3494C28.9105 11.5633 29.3051 10.0253 29.5547 9.02678C29.5675 8.7959 29.5232 8.56544 29.4258 8.35571C29.3284 8.14599 29.1809 7.96346 28.9963 7.82421C28.8117 7.68496 28.5957 7.59328 28.3673 7.55725C28.1389 7.52122 27.9051 7.54196 27.6866 7.61763ZM24.369 13.7213C23.7329 16.749 23.1531 18.4963 22.2996 19.5995C21.2125 21.0811 20.0691 21.532 19.1833 21.4998C17.6615 21.4515 17.1381 19.9377 17.2025 17.8682C17.2911 15.364 18.7405 8.88989 23.3706 9.01068C24.035 9.06541 24.687 9.22296 25.3031 9.47771L24.369 13.7213Z" fill="white"/>
<path d="M79.5604 7.61782L79.0692 7.77887C78.0567 7.31446 76.9616 7.05711 75.8483 7.02195C73.9338 6.92044 72.0396 7.45557 70.4613 8.54383C68.8747 9.78888 67.5572 11.3428 66.5883 13.1116C65.6195 14.8804 65.0195 16.8274 64.8246 18.8347C64.7593 19.5073 64.8358 20.1861 65.0492 20.8273C65.2625 21.4685 65.608 22.0578 66.0634 22.5571C66.5187 23.0565 67.0737 23.4547 67.6925 23.7262C68.3114 23.9977 68.9803 24.1363 69.656 24.1331C72.0717 24.2136 73.6822 22.418 75.0269 20.7511C74.8853 21.3589 74.7804 21.9747 74.7129 22.5951C74.6324 23.3601 75.5181 24.0284 76.5891 24.0365C77.66 24.0445 78.6505 23.5292 78.6746 22.7642C78.8438 20.9277 79.1316 19.1041 79.5362 17.3048L80.1885 14.3415C80.8004 11.5635 81.195 10.0174 81.4366 9.01892C81.4526 8.78652 81.41 8.55381 81.3129 8.3421C81.2157 8.13038 81.067 7.94641 80.8803 7.80702C80.6937 7.66763 80.4751 7.57728 80.2445 7.54422C80.0139 7.51117 79.7787 7.53648 79.5604 7.61782ZM76.2428 13.7134C75.6147 16.7491 75.035 18.4965 74.1734 19.5916C73.0863 21.0813 71.9429 21.5242 71.0571 21.5C69.5272 21.4436 69.0038 19.8895 69.0763 17.8604C69.1648 15.3641 70.6062 8.89008 75.2443 9.00282C75.9092 9.05531 76.5615 9.21295 77.1769 9.46985L76.2428 13.7134Z" fill="white"/>
<path d="M42.1811 6.74788C39.7654 6.65931 38.461 7.70611 37.1887 9.50177C37.3517 9.08589 37.4574 8.64974 37.5027 8.20535C37.5913 7.44843 36.3271 6.84451 35.2561 6.83646C34.1852 6.82841 33.1947 7.35181 33.1706 8.10873C32.998 9.94531 32.7076 11.7689 32.3009 13.5682L31.6568 16.5314C31.5279 17.0871 31.4152 17.5863 31.3266 18.0533L29.6034 25.8721C29.6034 25.8721 29.0236 28.1429 28.5888 29.3105C28.0574 30.7679 29.9899 30.9934 29.9899 30.9934C29.9899 30.9934 32.6069 31.4524 33.0176 29.552L34.2415 23.6094C34.819 23.7527 35.4102 23.8337 36.005 23.851C37.9199 23.9568 39.8155 23.4213 41.392 22.3291C42.9799 21.0854 44.2985 19.5318 45.2674 17.7627C46.2364 15.9936 46.8356 14.046 47.0286 12.0383C47.0929 11.3649 47.0151 10.6856 46.8002 10.0443C46.5853 9.40294 46.2382 8.81386 45.7813 8.31517C45.3243 7.81648 44.7677 7.41929 44.1476 7.14931C43.5274 6.87932 42.8575 6.74257 42.1811 6.74788ZM42.7528 13.0126C42.6723 15.5169 41.2229 21.9909 36.5928 21.8701C35.9452 21.8235 35.3091 21.674 34.7086 21.4273L35.3206 18.464L35.6024 17.1998C36.2224 14.1721 36.8022 12.4248 37.6638 11.3216C38.7508 9.83997 39.8943 9.38904 40.78 9.42125C42.3019 9.4293 42.8253 10.9431 42.7528 13.0126Z" fill="white"/>
<path d="M60.0006 0.0403482L54.1466 0.18529C52.3589 0.18529 51.8114 1.39314 51.7953 1.79575C51.7953 1.79575 49.4601 15.9598 48.9448 17.997C48.9448 17.997 48.365 20.6221 47.9141 22.0232C47.3585 23.7222 49.597 23.9074 49.597 23.9074C49.597 23.9074 52.6166 24.3261 53.0192 22.1279L54.2834 14.6956C59.6302 14.8808 61.9493 13.5521 61.9493 13.5521C63.4967 12.8622 64.8138 11.743 65.7443 10.3272C66.6749 8.91137 67.1799 7.25837 67.1994 5.56424C67.5537 -0.418633 60.0006 0.0403482 60.0006 0.0403482ZM59.3806 11.4102C57.9008 11.9653 56.3191 12.196 54.7424 12.0866L56.3529 2.34331C56.3529 2.34331 57.7459 2.25474 58.5431 2.34331C59.3403 2.43189 62.1425 2.39163 62.1828 5.34683C62.223 8.30203 61.0313 10.5969 59.3806 11.4102Z" fill="white"/>
<path d="M96.8801 7.25508C96.2724 7.17416 95.6553 7.3033 95.131 7.62108C94.6067 7.93887 94.2068 8.42623 93.9974 9.00244L89.6813 19.8972L88.2802 8.92997C87.9823 6.9491 85.2445 7.23898 85.2445 7.23898C85.2445 7.23898 83.2314 7.34366 83.6824 8.84945C84.0528 10.0976 84.4876 12.473 84.4876 12.473C85.4619 17.7795 85.8162 22.0794 85.8162 22.0794C85.8162 22.474 85.9451 23.4161 87.7488 23.859C87.7488 23.859 86.4443 28.481 82.2893 28.6904C82.2893 28.6904 81.9109 28.6904 81.774 29.2862C81.6371 29.8821 81.476 31.9757 83.634 31.9999C84.1123 31.9872 84.581 31.8631 85.0029 31.6375C85.9202 31.1508 86.7393 30.4983 87.4186 29.713C89.2689 27.5749 90.7716 25.1593 91.8716 22.5545L97.935 8.86555C97.935 8.86555 98.8127 7.45639 96.8801 7.25508Z" fill="white"/>
</svg>
